<svg id="logo-resolve" xmlns="http://www.w3.org/2000/svg" viewBox="0 0 558.34 33.18"><title>partners</title><g id="logo-schmidt-color"><g id="schmidt-futures-logo-copy"><g id="logo"><g id="text"><path id="Fill-1" d="M125.49,14.71c-6.83-1.56-8.4-3.12-8.4-6.05h0c0-2.92,2.54-5.07,6.64-5.07a13.91,13.91,0,0,1,9,3.32l1.95-2.73A16.27,16.27,0,0,0,123.73.27c-5.86,0-10.15,3.51-10.15,8.39h0c0,5.08,3.32,7.42,10.34,9,6.44,1.37,8,2.93,8,5.86h0c0,3.12-2.74,5.26-6.83,5.26-4.3,0-7.42-1.36-10.74-4.48l-2.14,2.53a18.13,18.13,0,0,0,12.68,4.88c6.25,0,10.54-3.51,10.54-8.78h0c.19-4.29-3.12-6.83-10-8.2"/><path id="Fill-3" d="M156.52,29.16c-6.83,0-12.1-5.66-12.1-12.89h0c0-7.22,5.07-12.68,12.1-12.68a13.05,13.05,0,0,1,9.75,4.29l2.35-2.53A16.1,16.1,0,0,0,156.52.47a15.66,15.66,0,0,0-15.81,16h0c0,9,6.63,16,15.61,16,5.66,0,9.17-2.14,12.49-5.46l-2.34-2.34c-2.93,2.92-5.66,4.49-9.95,4.49"/><polygon id="Fill-5" points="196.91 14.71 178.96 14.71 178.96 0.86 175.45 0.86 175.45 31.89 178.96 31.89 178.96 17.84 196.91 17.84 196.91 31.89 200.43 31.89 200.43 0.86 196.91 0.86 196.91 14.71"/><polygon id="Fill-7" points="225.41 17.84 214.09 0.86 210.57 0.86 210.57 31.89 213.89 31.89 213.89 6.71 225.21 23.3 225.41 23.3 236.72 6.71 236.72 31.89 240.24 31.89 240.24 0.86 236.72 0.86 225.41 17.84"/><polygon id="Fill-9" points="251.56 31.89 255.07 31.89 255.07 0.86 251.56 0.86 251.56 31.89"/><path id="Fill-11" d="M290,16.47c0,6.83-5.07,12.29-12.88,12.29H269.9V4h7.22c8,0,12.88,5.46,12.88,12.49ZM277.12.86H266.39v31h10.73c9.76,0,16.59-6.83,16.59-15.62h0c0-8.78-6.83-15.41-16.59-15.41Z"/><polygon id="Fill-12" points="297.03 3.98 307.57 3.98 307.57 31.89 311.08 31.89 311.08 3.98 321.42 3.98 321.42 0.86 297.03 0.86 297.03 3.98"/><polygon id="Fill-13" points="338.79 31.89 347.38 31.89 347.38 20.76 362.21 20.76 362.21 13.74 347.38 13.74 347.38 8.27 363.77 8.27 363.77 0.86 338.79 0.86 338.79 31.89"/><path id="Fill-14" d="M388.75,18.23c0,4.29-2.34,6.44-5.66,6.44-3.51,0-5.66-2.15-5.66-6.64V.86h-8.78V18.23c0,9.75,5.47,14.24,14.44,14.24,8.78,0,14.64-4.49,14.64-14.44V.86H389V18.23Z"/><polygon id="Fill-15" points="402.22 8.27 411.39 8.27 411.39 31.89 420.17 31.89 420.17 8.27 429.35 8.27 429.35 0.86 402.22 0.86 402.22 8.27"/><path id="Fill-16" d="M454.33,18.23c0,4.29-2.35,6.44-5.66,6.44-3.52,0-5.66-2.15-5.66-6.64V.86h-8.79V18.23c0,9.75,5.47,14.24,14.45,14.24,8.78,0,14.63-4.49,14.63-14.44V.86h-8.78V18.23Z"/><path id="Fill-17" d="M487.5,12c0,2.34-1.75,3.71-4.68,3.71h-5.66V8.27h5.66c2.93,0,4.68,1.17,4.68,3.71Zm8.59-.39h0a10.52,10.52,0,0,0-2.73-7.41C491.21,2,487.89.86,483.21.86H468.57v31h8.59V22.52h3.71l6.24,9.37h9.95l-7.41-10.74c3.9-1.75,6.44-4.88,6.44-9.56Z"/><polygon id="Fill-18" points="510.33 19.59 525.17 19.59 525.17 12.76 510.33 12.76 510.33 8.08 526.73 8.08 526.73 0.86 501.75 0.86 501.75 31.89 527.12 31.89 527.12 24.47 510.33 24.47 510.33 19.59"/><path id="Fill-19" d="M546.83,12.57c-4.29-1-5.47-1.56-5.47-2.93h0c0-1.17,1-1.95,3.13-1.95a15.07,15.07,0,0,1,8.78,3.12l4.29-6.05C554.25,2,550.15.66,544.88.66c-7.42,0-12.1,4.1-12.1,10h0c0,6.44,5.07,8.19,11.71,9.75,4.29,1,5.27,1.76,5.27,2.93h0c0,1.37-1.17,2.15-3.52,2.15a17.09,17.09,0,0,1-10.14-3.71l-4.88,5.66c3.9,3.51,9,5.07,14.63,5.07,7.61,0,12.49-3.71,12.49-10.15h0c0-5.85-4.29-8.19-11.51-9.75"/></g><g id="mark"><path id="Fill-20" d="M99.53,16.59c-9.76,3.71-21.86,10-29.27,16.59l5.85-16.59L70.26,0c7.41,6.64,19.51,12.88,29.27,16.59"/><polygon id="Fill-21" points="66.35 0 54.64 0 60.5 16.59 54.64 33.18 66.35 33.18 72.21 16.59 66.35 0"/><polygon id="Fill-22" points="50.55 0 27.52 0 21.47 16.59 27.52 33.18 50.55 33.18 56.59 16.59 50.55 0"/><polygon id="Fill-23" points="25.37 0 0 0 0 5.86 23.03 5.86 25.37 0"/><polygon id="Fill-24" points="23.03 27.32 0 27.32 0 33.18 25.37 33.18 23.03 27.32"/><polygon id="Fill-25" points="18.34 16.59 19.52 13.66 0 13.66 0 19.52 19.52 19.52 18.34 16.59"/></g></g></g></g></svg>