<svg id="logo-resolve" xmlns="http://www.w3.org/2000/svg" xmlns:xlink="http://www.w3.org/1999/xlink" viewBox="0 0 199.55 52.96"><defs><style>.cls-1{fill:none;}.cls-2{clip-path:url(#clip-path);}.cls-3{fill:#231f20;}</style><clipPath id="clip-path"><rect class="cls-1" width="199.55" height="52.96"/></clipPath></defs><title>partners</title><g id="logo-tri-black"><g class="cls-2"><g class="cls-2"><path class="cls-3" d="M45.85,2.14c.44,0,.49.32.62.55q3.78,6.5,7.54,13c1.47,2.54,2.87,5.13,4.42,7.62a5.57,5.57,0,0,1,0,6.35c-4.13,7-8.17,14.09-12.25,21.14-.12.2-.13.51-.52.51a66.29,66.29,0,0,0,4.4-24.59,67,67,0,0,0-4.22-24.6"/><path class="cls-3" d="M43.3,52.92H39.46c-7.21,0-14.42-.07-21.63,0a5.37,5.37,0,0,1-5.23-3c-1.52-2.73-3.11-5.43-4.67-8.14l-3.7-6.38q-1.74-3-3.47-6.06c-.09-.15-.28-.3-.1-.65,1.1,1.07,2,2.29,3,3.32s2.12,2.14,3.24,3.14,2.35,2,3.54,2.93,2.4,1.79,3.62,2.67,2.54,1.71,3.85,2.49,2.59,1.53,3.91,2.24,2.73,1.4,4.13,2,2.76,1.18,4.15,1.73S33,50.4,34.49,50.83s2.86.86,4.33,1.16,3,.69,4.48.93"/><path class="cls-3" d="M6.32,14c.81-1.69,1.84-3.26,2.76-4.9,1.12-2,2.28-4,3.43-6A9,9,0,0,1,14,1.12a2.24,2.24,0,0,1,1.3-.75c.71.06,1.38-.2,2.09-.19Q29,.21,40.58.2c.22,0,.44,0,.72,0-.24.26-.6,0-.71.37h0c-.22,0-.45-.07-.6.16a66.8,66.8,0,0,0-18.2,6.73A76.09,76.09,0,0,0,7,17.72c-.83.75-1.64,1.52-2.46,2.28a3.28,3.28,0,0,0-1.86,1.93h0c-.3-.11-.44.29-.71.31-.06-.2-.08-.36,0-.44.39-.3.32-1,1-1.08.16-.48.34-.94.54-1.4.35-.78,1-1.37,1.35-2.12a12.49,12.49,0,0,1,1.29-2.35A1,1,0,0,0,6.32,14"/><path class="cls-3" d="M114.1,14.62A7,7,0,1,1,107,21.49a6.92,6.92,0,0,1,7.06-6.87m3.68,7a4.53,4.53,0,0,0-.68-2.71,3.67,3.67,0,0,0-6.41.42,5.47,5.47,0,0,0-.07,4.38,3.45,3.45,0,0,0,2.87,2.25,3.52,3.52,0,0,0,3.56-1.58,4.55,4.55,0,0,0,.73-2.76"/><path class="cls-3" d="M93.5,21.61a7,7,0,1,1-7-7,7,7,0,0,1,7,7m-10.77-.44a5.66,5.66,0,0,0,.39,2.5A3.59,3.59,0,0,0,86.65,26,3.63,3.63,0,0,0,90,23.44a5.91,5.91,0,0,0,.17-3.12A3.71,3.71,0,0,0,84.26,18a4.13,4.13,0,0,0-1.53,3.21"/><path class="cls-3" d="M137.34,15.05h3.74c1.75,4.31,3.51,8.62,5.3,13h-3.26a10.62,10.62,0,0,1-.83-2.08,1,1,0,0,0-1-.75c-1.57,0-3.13,0-4.72,0-.57.88-.7,1.94-1.22,2.82h-3.26c1.79-4.41,3.54-8.72,5.29-13m0,7.82h3.76c-.59-1.7-1.15-3.3-1.88-5-.66,1.74-1.25,3.32-1.88,5"/><path class="cls-3" d="M93.75,15c.93,0,1.89,0,2.85,0,.44,0,.6.28.78.59q1.14,2,2.29,4l.52.88a2.17,2.17,0,0,0,.64-.83c.73-1.28,1.49-2.55,2.17-3.85a1.32,1.32,0,0,1,1.44-.81c.79.07,1.59,0,2.36,0,.17.27,0,.41-.11.55-1.53,2.4-3,4.81-4.6,7.2a1.94,1.94,0,0,0-.34,1.16c0,1.38,0,2.75,0,4.2H98.9c-.23-.24-.14-.51-.14-.75a17,17,0,0,1,0-2,5.49,5.49,0,0,0-1.16-3.91c-1.29-1.87-2.45-3.83-3.67-5.74-.11-.19-.3-.35-.19-.68"/><path class="cls-3" d="M125.84,17.9c-.08-.47-.44-.37-.75-.37H121.7a10.63,10.63,0,0,1-.06-2.46h11.25v2.4c-1.31.13-2.64,0-3.92.07-.29.22-.18.51-.27.74-.34.24-.17.59-.17.88,0,2.57,0,5.13,0,7.69,0,.34.12.71-.16,1H127c-1,0-1,0-1-1q0-4,0-8.07c0-.3.17-.65-.17-.89"/><path class="cls-3" d="M71.78,17.7c-.29-.28-.66-.17-1-.17-1,0-2,0-3.13-.06a16.71,16.71,0,0,1-.06-2.34c.8-.15,9.69-.19,11.23-.06a12.25,12.25,0,0,1,.07,2.45h-4s0-.07,0-.08a.11.11,0,0,0-.09,0,1.62,1.62,0,0,0-.26,1.07c0,2.56,0,5.12,0,7.69,0,1.91.3,1.71-1.86,1.72a.9.9,0,0,1-.37-.07c-.15-.07-.32-.22-.25-.37.29-.66-.07-1.29,0-1.95a25.12,25.12,0,0,0,0-3.36c-.09-1.1.35-2.19,0-3.29,0-.13.07-.3.11-.45a1.92,1.92,0,0,0,0-.83l-.33.12"/><path class="cls-3" d="M70.69,37.36H69.36v3a4.84,4.84,0,0,1-1.74,0V32.63c1.59.08,3.2-.09,4.78.11a1.87,1.87,0,0,1,1.72,1.57,2.33,2.33,0,0,1-.73,2.52c-.17.13-.42.17-.56.45l1.87,3.14H72.56l-1.87-3.06M69.4,35.79c.8,0,1.5,0,2.2,0a.74.74,0,0,0,.78-.79.7.7,0,0,0-.76-.78c-.73,0-1.46,0-2.22,0Z"/><path class="cls-3" d="M143.16,36.2v4.14a7,7,0,0,1-1.57,0,45.06,45.06,0,0,1-.12-7.61,8.54,8.54,0,0,1,1.69-.1l3.23,4.43V32.83a7.68,7.68,0,0,1,1.84-.16v7.67a6.93,6.93,0,0,1-1.58.06c-.33,0-.4-.27-.55-.47l-2.7-3.79-.24.06"/><path class="cls-3" d="M108.84,32.69c1.5,0,2.94,0,4.38,0a2,2,0,0,1,2.12,1.59c.26,1,0,2.41-1.12,2.75,0,0-.09.09-.19.21l1.87,3.14h-2.12c-.61-1-1.25-2-1.88-3h-1.23c-.16,1,0,2-.12,3a7.52,7.52,0,0,1-1.71,0Zm1.77,3a10.85,10.85,0,0,0,2.35,0,.78.78,0,0,0,.67-.82c0-.38-.24-.71-.65-.72a9.42,9.42,0,0,0-2.37.05Z"/><path class="cls-3" d="M97.62,37.26H93.88a2.26,2.26,0,0,0-.06,1.62h4.42a6,6,0,0,1,.07,1.52H92V32.7H98.2a4.55,4.55,0,0,1,0,1.48c-1.46,0-2.92,0-4.35,0a2.79,2.79,0,0,0-.14,1.43c1.3.17,2.54,0,3.83.1a4.7,4.7,0,0,1,.06,1.52"/><path class="cls-3" d="M90.19,34.91a6.74,6.74,0,0,1-1.72.09,1.72,1.72,0,0,0-2.2-.93.79.79,0,0,0-.65.62.7.7,0,0,0,.46.76,3.52,3.52,0,0,0,1.2.34,6.62,6.62,0,0,1,1.93.54,2,2,0,0,1,.69,3.28C88.83,41,85.09,41,84,39.65A2,2,0,0,1,83.52,38,5.66,5.66,0,0,1,85.21,38a2.13,2.13,0,0,0,2.72,1,.79.79,0,0,0,.58-.7.75.75,0,0,0-.53-.81,5.87,5.87,0,0,0-1.29-.35,6.22,6.22,0,0,1-1.83-.54,2,2,0,0,1-.43-3.41,2.77,2.77,0,0,1,.73-.45,4.89,4.89,0,0,1,3.57,0,2.13,2.13,0,0,1,1.46,2.17"/><path class="cls-3" d="M77.79,37.23a7.12,7.12,0,0,0-.07,1.67h4.55v1.48H76V32.73h6.19a4,4,0,0,1,0,1.43H77.9c-.28.27-.17.54-.18.79a1.26,1.26,0,0,0,.1.74H81.5a11.41,11.41,0,0,1,.12,1.54Z"/><path class="cls-3" d="M156.41,35h-1.72a1.66,1.66,0,0,0-2.19-.89.77.77,0,0,0-.56.71.67.67,0,0,0,.46.66,4.45,4.45,0,0,0,1.18.35,6.76,6.76,0,0,1,1.84.49c.72.34,1.36.84,1.32,1.72a2.33,2.33,0,0,1-1.19,2.14,5.32,5.32,0,0,1-4.26.19A2.25,2.25,0,0,1,149.75,38a7,7,0,0,1,1.69-.09A2,2,0,0,0,154,39.06a.83.83,0,0,0,.75-.75c.07-.43-.18-.64-.51-.82a5,5,0,0,0-1.37-.38,4.87,4.87,0,0,1-2-.64,2.06,2.06,0,0,1,.17-3.55,4.27,4.27,0,0,1,2.68-.5,3.89,3.89,0,0,1,1.56.43,2,2,0,0,1,1.1,2.12"/><path class="cls-3" d="M198.88,35.67v1.54c-1.26.17-2.5,0-3.76.11a4.43,4.43,0,0,0,0,1.55h4.39a4.36,4.36,0,0,1,0,1.48h-6.27V32.74h6.19a4.22,4.22,0,0,1,.06,1.43h-4.3a2.72,2.72,0,0,0-.08,1.5Z"/><path class="cls-3" d="M132.7,40.39h-1.63v-3a30.13,30.13,0,0,0-3.29-.1v3.12H126V32.74a11.08,11.08,0,0,1,1.75-.05v3a29.4,29.4,0,0,0,3.25,0V32.82c.57-.29,1.13,0,1.72-.21Z"/><path class="cls-3" d="M107.7,40.38h-1.92c0-.05-.1-.08-.12-.13-.6-1.53-.6-1.53-2.2-1.53h-1.52c-.41.51-.43,1.16-.78,1.67H99.23c1.06-2.62,2.09-5.16,3.12-7.72h2.22l3.13,7.71m-5.32-3.1a8.6,8.6,0,0,0,2.15,0,27.18,27.18,0,0,0-1.1-2.81c-.38,1-.71,1.91-1.05,2.84"/><path class="cls-3" d="M124.59,37.9a4.09,4.09,0,0,1-4.73,2.69,4.14,4.14,0,0,1-3.27-4,4,4,0,0,1,3.15-4.06,4,4,0,0,1,4.82,2.57,6.25,6.25,0,0,1-1.67.08c-.18,0-.26-.13-.38-.25a2.22,2.22,0,0,0-2.8-.72,2.78,2.78,0,0,0-1.14,3A2.13,2.13,0,0,0,120.14,39a2,2,0,0,0,2.3-.77.73.73,0,0,1,.71-.36c.45,0,.89,0,1.44,0"/><path class="cls-3" d="M177,32.71h1.57c.26.22.16.5.16.74,0,1.25,0,2.49,0,3.74a2.17,2.17,0,0,0,.35,1.37,1.74,1.74,0,0,0,1.84.49,1.23,1.23,0,0,0,1-1,3.36,3.36,0,0,0,.11-.94c0-1.19,0-2.37,0-3.56a1.07,1.07,0,0,1,.13-.78h1.46c.22.24.13.51.14.75,0,1.47,0,3,0,4.42a2.69,2.69,0,0,1-1.94,2.54,4.72,4.72,0,0,1-3.19-.12A2.57,2.57,0,0,1,177,37.77c0-1.66,0-3.32,0-5.06"/><path class="cls-3" d="M191.78,34.2h-2.42a50.35,50.35,0,0,1,0,6.14,7.75,7.75,0,0,1-1.74,0c-.06-1,0-2,0-3s0-2,0-3.08c-.83-.16-1.6,0-2.35-.14-.24-.46-.08-.89-.14-1.38h6.62a3.34,3.34,0,0,1,0,1.45"/><path class="cls-3" d="M157.83,32.74h6.61a5,5,0,0,1,0,1.39c-.78.17-1.55,0-2.42.13v6.11H160.3V34.31c-.85-.24-1.65,0-2.47-.17Z"/><path class="cls-3" d="M171.47,34.2H169a4.36,4.36,0,0,1,0-1.44h6.57a3,3,0,0,1,0,1.42h-2.39v6.1a4.42,4.42,0,0,1-1.74.11Z"/><path class="cls-3" d="M137.84,32.73h1.75v7.63a7.3,7.3,0,0,1-1.75,0Z"/><path class="cls-3" d="M165.9,32.73h1.63v7.61a6.24,6.24,0,0,1-1.63,0Z"/><path class="cls-3" d="M71.78,17.7l.33-.12a1.92,1.92,0,0,1,0,.83c0,.15-.15.32-.11.45.32,1.1-.12,2.19,0,3.29a25.12,25.12,0,0,1,0,3.36c0,.66.33,1.29,0,1.95-.07.15.1.3.25.37a.9.9,0,0,0,.37.07c2.16,0,1.85.19,1.86-1.72,0-2.57,0-5.13,0-7.69a1.62,1.62,0,0,1,.26-1.07.11.11,0,0,1,.09,0s0,0,0,.08A10.82,10.82,0,0,0,74.76,20c0,2.4,0,4.8,0,7.2a1.67,1.67,0,0,1-.14.91,14,14,0,0,1-2.83,0Z"/><path class="cls-3" d="M40.59.61c.11-.32.47-.11.71-.37-.28,0-.5,0-.72,0Q29,.2,17.43.18c-.71,0-1.38.25-2.09.2A1.75,1.75,0,0,1,16.42.05a9.4,9.4,0,0,1,1.06,0H42.36c.7,0,1.41,0,2.11.05a36.62,36.62,0,0,1-3.88.56"/><path class="cls-3" d="M6.32,14a1,1,0,0,1-.21.82,12.49,12.49,0,0,0-1.29,2.35c-.39.75-1,1.34-1.35,2.12-.2.46-.38.92-.54,1.4-.64.07-.57.78-1,1.08-.1.08-.08.24,0,.44.27,0,.41-.42.71-.31A11.06,11.06,0,0,1,.21,24.53l6-10.37c0-.05.1-.08.15-.12"/><path class="cls-3" d="M125.84,17.9c.34.24.17.59.17.89q0,4,0,8.07c0,1,0,1,1,1h1.32c.28-.34.16-.71.16-1,0-2.56,0-5.12,0-7.69,0-.29-.17-.64.17-.88q0,3.3.05,6.61c0,1,0,2.09,0,3.2h-2.83c-.14-.1-.13-.26-.13-.42V18.28c0-.13,0-.26,0-.38"/><path class="cls-3" d="M2.67,21.93A3.28,3.28,0,0,1,4.53,20a17.84,17.84,0,0,1-1.86,1.93"/><path class="cls-3" d="M.16,28.29a.26.26,0,0,1,.32.12c.05.08.08.17,0,.25s-.26-.19-.27-.38Z"/><path class="cls-3" d="M40,.76c.15-.23.38-.19.6-.16a.57.57,0,0,1-.6.16"/><path class="cls-3" d="M.17,28.28C0,28.21-.07,28.11.08,28a.28.28,0,0,1,.08.33Z"/></g></g></g></svg>