<svg id="svg3390"
  xmlns="http://www.w3.org/2000/svg"
  xmlns:xlink="http://www.w3.org/1999/xlink"
  viewBox="0 0 999 304.84">
  <defs>
    <style>
      .cls-1{fill:none;}.cls-2{clip-path:url(#clip-path);}.cls-3{fill:url(#linear-gradient);}.cls-4{fill:#efefef;}
    </style>
  </defs>

  <!-- OSMS text -->
  <g id="g3456">
    <g id="g3458">
      <g id="g3464">
        <path id="path3466" class="cls-4" d="M659.54,152.08c0-15.5-7.8-24.7-20.1-24.7s-20.1,9.2-20.1,24.7,7.8,25.4,20.1,25.4,20.1-9.8,20.1-25.4m-61.1,0c0-25.3,16.7-39.8,41-39.8s41,14.6,41,39.8-16.7,40.5-41,40.5-41-15.2-41-40.5"/>
      </g>
      <g id="g3468">
        <path id="path3470" class="cls-4" d="M691.62,181.36l11.7-12c6.4,4.8,14.7,8.1,22.2,8.1,8.5,0,12.7-2.9,12.7-7.5,0-4.9-5.1-6.4-13-9.2l-11.7-4.3c-9.4-3.3-18.2-9.9-18.2-21.1,0-12.8,13.4-23.1,32.2-23.1,10.4,0,21.3,3.5,29,10.1l-10.3,11c-5.9-3.9-11.6-6.1-18.7-6.1s-11.5,2.5-11.5,6.9c0,4.7,5.9,6.5,13.8,9.2l11.5,4c11,3.8,17.9,10.1,17.9,21.1,0,12.9-12.5,24-34,24-11.9.1-24.4-3.7-33.6-11.1"/>
      </g>
      <g id="g3472">
        <path id="path3474" class="cls-4" d="M776.31,113.78h22.3l14.6,34.4c1.8,4.6,3.4,9.5,5.2,14.3h.6c1.8-4.8,3.3-9.7,5.1-14.3l14.2-34.4h22.3v77.4H842v-28.4c0-7.5,1.6-18.8,2.6-26.3H844l-7.4,18.3-12.8,29.7h-11.2l-12.8-29.7-7.2-18.3H792c1,7.5,2.6,18.8,2.6,26.3v28.4h-18.3Z"/>
      </g>
      <g id="g3476">
        <path id="path3478" class="cls-4" d="M876.09,181.36l11.7-12c6.4,4.8,14.7,8.1,22.2,8.1,8.5,0,12.7-2.9,12.7-7.5,0-4.9-5.1-6.4-13-9.2l-11.7-4.3c-9.4-3.3-18.2-9.9-18.2-21.1,0-12.8,13.4-23.1,32.2-23.1,10.4,0,21.3,3.5,29,10.1l-10.3,11c-5.9-3.9-11.6-6.1-18.7-6.1s-11.5,2.5-11.5,6.9c0,4.7,5.9,6.5,13.8,9.2l11.5,4c11,3.8,17.9,10.1,17.9,21.1,0,12.9-12.5,24-34,24-11.9.1-24.4-3.7-33.6-11.1"/>
      </g>
    </g>
  </g>
</svg>