<svg id="svg3390"
  xmlns="http://www.w3.org/2000/svg"
  xmlns:xlink="http://www.w3.org/1999/xlink"
  viewBox="0 0 550 305">
  <defs>
    <style>
      .cls-1{fill:none;}.cls-2{clip-path:url(#clip-path);}.cls-3{fill:url(#linear-gradient);}.cls-4{fill:#efefef;}
    </style>
    <!-- logo image -->
    <clipPath id="clip-path">
      <path class="cls-1" d="M252.48,14.39a14.38,14.38,0,0,0,2.4,7.86h0L221,85.94a17.13,17.13,0,0,0-2.67-.14h0a25.09,25.09,0,0,0-14,4.27h0L124,52.09v-.4h0a23,23,0,0,0-23.05-23h0a23.05,23.05,0,0,0-23,23h0a23.05,23.05,0,0,0,23,23h0a22.85,22.85,0,0,0,18.92-9.86h0l75.54,35.84a25.41,25.41,0,0,0-2.26,10.53h0a24.47,24.47,0,0,0,3.73,13.06h0l-42.37,44.5a37.29,37.29,0,0,0-22.38-7.46h0A37.56,37.56,0,0,0,98.86,181.6h0L37.44,152.42c0-.53.13-1.07.13-1.6h0A18.76,18.76,0,0,0,18.79,132h0A18.76,18.76,0,0,0,0,150.82H0a18.77,18.77,0,0,0,18.79,18.79h0a18.42,18.42,0,0,0,13.05-5.33h0l63.29,30c-.13,1.46-.27,2.79-.27,4.26h0a37.32,37.32,0,0,0,11.46,26.91h0l-32.51,48.5c-.4,0-.93-.13-1.33-.13h0a14,14,0,0,0-14,14h0a14,14,0,0,0,14,14h0a14,14,0,0,0,14-14h0a13.71,13.71,0,0,0-1.73-6.53h0l32.51-48.5A38,38,0,0,0,132.3,236h0A37.71,37.71,0,0,0,159,224.9h0l39,29a20.75,20.75,0,0,0-.54,4.93h0a23.06,23.06,0,0,0,23.05,23.05h0a23.27,23.27,0,0,0,22.12-16.25h0l85.54-25.18a31.05,31.05,0,0,0,27.18,16.12h0a31.43,31.43,0,0,0,17.72-5.6h0l36.1,33.84a14.93,14.93,0,0,0-.4,3.47h0a16.52,16.52,0,0,0,16.52,16.52h0a16.52,16.52,0,0,0,16.52-16.52h0a16.51,16.51,0,0,0-16.52-16.52h0a17,17,0,0,0-8.26,2.26h0l-34.9-32.91a31.58,31.58,0,0,0,4.26-15.72h0a31,31,0,0,0-25.45-30.51h0l-.27-96.46a18,18,0,0,0,8.13-4.93h0L438.07,137l59.69,83.81A11.6,11.6,0,0,0,497,225h0a11.94,11.94,0,0,0,12,12h0a11.94,11.94,0,0,0,12-12h0a11.94,11.94,0,0,0-12-12h-.4l-57.42-80.61L504,90.33a18.27,18.27,0,0,0,9.6,2.67h0A18.77,18.77,0,0,0,532.4,74.21h0a18.76,18.76,0,0,0-18.78-18.78h0a18.77,18.77,0,0,0-18.79,18.78h0a17.54,17.54,0,0,0,.93,5.86h0L443.4,121.78l-.8-1.07-2.66,1.87L374.12,81.27v-.8h0a18.76,18.76,0,0,0-18.78-18.78h0a19.71,19.71,0,0,0-10,2.8h0L280.46,14.66V14h0a14,14,0,0,0-14-14h0a14.42,14.42,0,0,0-14,14.39M243,116.05a21.47,21.47,0,0,0,.53-5.2h0A25.44,25.44,0,0,0,233.43,90.6h0L266.6,28.25a14.44,14.44,0,0,0,7.06-2h0l63.69,48.89a18.85,18.85,0,0,0-.8,5.47h0a18.71,18.71,0,0,0,10.92,17h0l.27,97.93a27,27,0,0,0-4.66,1.6h0L243,116.05Zm-6.26,12,95.13,77.41a31.12,31.12,0,0,0-7.6,20.25h0a11,11,0,0,0,.14,2.13h0L242.49,252a23,23,0,0,0-22-16h0a22.82,22.82,0,0,0-16,6.39h0l-38.37-28.51a37,37,0,0,0,3.33-15.45h0a37.66,37.66,0,0,0-6-20.26h0L206.38,133a25.89,25.89,0,0,0,12,3.06h0a25.27,25.27,0,0,0,18.39-8"/>
    </clipPath>
    <linearGradient id="linear-gradient" x1="-3546.28" y1="626.54" x2="-3544.9" y2="626.54" gradientTransform="matrix(480.57, 0, 0, -480.57, 1704224, 301246.84)" gradientUnits="userSpaceOnUse">
    <stop offset="0" stop-color="#fcb74a"/>
    <stop offset="0" stop-color="#fcb74a"/><stop offset="1" stop-color="#f16750"/>
    </linearGradient>
  </defs>
  <g id="g3398">
    <g id="g3434">
      <g class="cls-2">
        <g id="g3436">
          <g id="g3442">
            <g id="g3444">
              <path id="path3454" class="cls-3" d="M252.48,14.39a14.38,14.38,0,0,0,2.4,7.86h0L221,85.94a17.13,17.13,0,0,0-2.67-.14h0a25.09,25.09,0,0,0-14,4.27h0L124,52.09v-.4h0a23,23,0,0,0-23.05-23h0a23.05,23.05,0,0,0-23,23h0a23.05,23.05,0,0,0,23,23h0a22.85,22.85,0,0,0,18.92-9.86h0l75.54,35.84a25.41,25.41,0,0,0-2.26,10.53h0a24.47,24.47,0,0,0,3.73,13.06h0l-42.37,44.5a37.29,37.29,0,0,0-22.38-7.46h0A37.56,37.56,0,0,0,98.86,181.6h0L37.44,152.42c0-.53.13-1.07.13-1.6h0A18.76,18.76,0,0,0,18.79,132h0A18.76,18.76,0,0,0,0,150.82H0a18.77,18.77,0,0,0,18.79,18.79h0a18.42,18.42,0,0,0,13.05-5.33h0l63.29,30c-.13,1.46-.27,2.79-.27,4.26h0a37.32,37.32,0,0,0,11.46,26.91h0l-32.51,48.5c-.4,0-.93-.13-1.33-.13h0a14,14,0,0,0-14,14h0a14,14,0,0,0,14,14h0a14,14,0,0,0,14-14h0a13.71,13.71,0,0,0-1.73-6.53h0l32.51-48.5A38,38,0,0,0,132.3,236h0A37.71,37.71,0,0,0,159,224.9h0l39,29a20.75,20.75,0,0,0-.54,4.93h0a23.06,23.06,0,0,0,23.05,23.05h0a23.27,23.27,0,0,0,22.12-16.25h0l85.54-25.18a31.05,31.05,0,0,0,27.18,16.12h0a31.43,31.43,0,0,0,17.72-5.6h0l36.1,33.84a14.93,14.93,0,0,0-.4,3.47h0a16.52,16.52,0,0,0,16.52,16.52h0a16.52,16.52,0,0,0,16.52-16.52h0a16.51,16.51,0,0,0-16.52-16.52h0a17,17,0,0,0-8.26,2.26h0l-34.9-32.91a31.58,31.58,0,0,0,4.26-15.72h0a31,31,0,0,0-25.45-30.51h0l-.27-96.46a18,18,0,0,0,8.13-4.93h0L438.07,137l59.69,83.81A11.6,11.6,0,0,0,497,225h0a11.94,11.94,0,0,0,12,12h0a11.94,11.94,0,0,0,12-12h0a11.94,11.94,0,0,0-12-12h-.4l-57.42-80.61L504,90.33a18.27,18.27,0,0,0,9.6,2.67h0A18.77,18.77,0,0,0,532.4,74.21h0a18.76,18.76,0,0,0-18.78-18.78h0a18.77,18.77,0,0,0-18.79,18.78h0a17.54,17.54,0,0,0,.93,5.86h0L443.4,121.78l-.8-1.07-2.66,1.87L374.12,81.27v-.8h0a18.76,18.76,0,0,0-18.78-18.78h0a19.71,19.71,0,0,0-10,2.8h0L280.46,14.66V14h0a14,14,0,0,0-14-14h0a14.42,14.42,0,0,0-14,14.39M243,116.05a21.47,21.47,0,0,0,.53-5.2h0A25.44,25.44,0,0,0,233.43,90.6h0L266.6,28.25a14.44,14.44,0,0,0,7.06-2h0l63.69,48.89a18.85,18.85,0,0,0-.8,5.47h0a18.71,18.71,0,0,0,10.92,17h0l.27,97.93a27,27,0,0,0-4.66,1.6h0L243,116.05Zm-6.26,12,95.13,77.41a31.12,31.12,0,0,0-7.6,20.25h0a11,11,0,0,0,.14,2.13h0L242.49,252a23,23,0,0,0-22-16h0a22.82,22.82,0,0,0-16,6.39h0l-38.37-28.51a37,37,0,0,0,3.33-15.45h0a37.66,37.66,0,0,0-6-20.26h0L206.38,133a25.89,25.89,0,0,0,12,3.06h0a25.27,25.27,0,0,0,18.39-8"/>

            </g>
          </g>
        </g>
      </g>
    </g>
  </g>
</svg>