<svg id="svg3390" xmlns="http://www.w3.org/2000/svg" xmlns:xlink="http://www.w3.org/1999/xlink" viewBox="0 0 1054.2 453.3"><defs><style>.cls-1,.cls-6{fill:none;}.cls-2{fill:url(#linear-gradient);}.cls-3{isolation:isolate;}.cls-4{fill:#fff;}.cls-5{clip-path:url(#clip-path);}.cls-6{stroke:#fff;stroke-miterlimit:10;stroke-width:6px;}</style><linearGradient id="linear-gradient" x1="0.02" y1="230.44" x2="1054.22" y2="230.44" gradientTransform="matrix(1, 0, 0, -1, 0, 456)" gradientUnits="userSpaceOnUse"><stop offset="0" stop-color="#7da2ff"/><stop offset="1" stop-color="#2760ff"/></linearGradient><clipPath id="clip-path"><path class="cls-1" d="M309.92,93.71a13.08,13.08,0,0,0,2.2,7.3h0l-31.8,59.7a20.08,20.08,0,0,0-2.5-.1h0a23.89,23.89,0,0,0-13.2,4h0l-75.4-35.7v-.4h0a21.57,21.57,0,0,0-21.6-21.6h0a21.57,21.57,0,0,0-21.6,21.6h0a21.57,21.57,0,0,0,21.6,21.6h0a21.79,21.79,0,0,0,17.8-9.3h0l70.9,33.6a23.06,23.06,0,0,0-2.2,9.8h0a24.39,24.39,0,0,0,3.4,12.3h0l-39.7,41.8a34.87,34.87,0,0,0-21-7h0a34.92,34.92,0,0,0-31.2,19.1h0l-57.7-27.3c0-.5.1-1,.1-1.5h0a17.67,17.67,0,0,0-17.7-17.7h0a17.67,17.67,0,0,0-17.7,17.7h0a17.67,17.67,0,0,0,17.7,17.7h0a17.56,17.56,0,0,0,12.3-5h0l59.3,28.1a27.28,27.28,0,0,0-.3,4.1h0a35,35,0,0,0,10.7,25.2h0l-30.6,45.5c-.4,0-.8-.1-1.3-.1h0a13.19,13.19,0,0,0-13.2,13.2h0a13.19,13.19,0,0,0,13.2,13.2h0a13.19,13.19,0,0,0,13.2-13.2h0a12.6,12.6,0,0,0-1.6-6.1h0l30.5-45.5a34.93,34.93,0,0,0,14.1,3h0a34.8,34.8,0,0,0,24.9-10.4h0l36.9,27.4a24.16,24.16,0,0,0-.5,4.7h0a21.57,21.57,0,0,0,21.6,21.6h0a21.63,21.63,0,0,0,20.7-15.3h0l80.3-23.6a29,29,0,0,0,25.5,15.1h0a28.7,28.7,0,0,0,16.6-5.2h0l33.9,31.8a16.55,16.55,0,0,0-.3,3.2h0a15.45,15.45,0,0,0,15.5,15.5h0a15.45,15.45,0,0,0,15.5-15.5h0a15.45,15.45,0,0,0-15.5-15.5h0a14.43,14.43,0,0,0-7.7,2.2h0l-32.8-30.8a29.14,29.14,0,0,0,4-14.7h0a29.1,29.1,0,0,0-23.8-28.6h0l-.3-90.5a18.89,18.89,0,0,0,7.7-4.6h0l64.9,40.7,56,78.6a10.57,10.57,0,0,0-.8,4h0a11.18,11.18,0,0,0,11.2,11.2h0a11.18,11.18,0,0,0,11.2-11.2h0a11.18,11.18,0,0,0-11.2-11.2h-.3L496,205l49.6-39.5a17.14,17.14,0,0,0,9,2.5h0a17.67,17.67,0,0,0,17.7-17.7h0a17.67,17.67,0,0,0-17.7-17.7h0a17.67,17.67,0,0,0-17.7,17.7h0a16.11,16.11,0,0,0,.9,5.4h0l-49.1,39.1-.7-1-2.5,1.8-61.8-38.7v-.8h0a17.67,17.67,0,0,0-17.7-17.7h0a17.44,17.44,0,0,0-9.3,2.7h0l-60.9-46.7c0-.2.1-.4.1-.6h0a13.19,13.19,0,0,0-13.2-13.2h0a13.09,13.09,0,0,0-12.8,13.1m-8.8,95.4a26.07,26.07,0,0,0,.5-4.8h0a24,24,0,0,0-9.5-19h0l31.1-58.5a12.41,12.41,0,0,0,6.6-1.9h0l59.7,45.8a17,17,0,0,0-.8,5.1h0a17.66,17.66,0,0,0,10.2,16h0l.3,91.9a32.55,32.55,0,0,0-4.4,1.5h0l-93.7-76.1Zm-5.9,11.3,89.2,72.6a28.94,28.94,0,0,0-7.1,19h0c0,.7.1,1.4.1,2h0l-76.9,22.6a21.77,21.77,0,0,0-20.6-15.1h0a21.78,21.78,0,0,0-15,6h0l-36-26.7a34.91,34.91,0,0,0,3.1-14.5h0a35.29,35.29,0,0,0-5.6-19h0l40.2-42.3a23.54,23.54,0,0,0,11.2,2.8h0a22.94,22.94,0,0,0,17.4-7.4"/></clipPath></defs><rect class="cls-2" x="0.02" y="-1.09" width="1054.2" height="453.3"/><g class="cls-3"><path class="cls-4" d="M641.32,189.11v31.8h19v7.2h-27.6v-39Z"/><path class="cls-4" d="M664.72,200.61a18.29,18.29,0,0,1,3.8-6.5,17.62,17.62,0,0,1,6-4.4,21.3,21.3,0,0,1,16.2,0,16.71,16.71,0,0,1,6,4.4,21,21,0,0,1,3.8,6.5,25.57,25.57,0,0,1,0,16.1,17.86,17.86,0,0,1-3.8,6.4,16.48,16.48,0,0,1-6,4.3,20.89,20.89,0,0,1-8.1,1.6,19.21,19.21,0,0,1-8.1-1.6,16.48,16.48,0,0,1-6-4.3,20.5,20.5,0,0,1-3.8-6.4,23.15,23.15,0,0,1-1.3-8A26.44,26.44,0,0,1,664.72,200.61Zm7.9,12.9a15.67,15.67,0,0,0,1.8,4.2,9.6,9.6,0,0,0,3.3,3,11.46,11.46,0,0,0,9.8,0,9.43,9.43,0,0,0,3.3-3,13.33,13.33,0,0,0,1.8-4.2,19.13,19.13,0,0,0,.6-4.8,20.74,20.74,0,0,0-.6-5,15,15,0,0,0-1.8-4.3,8,8,0,0,0-3.3-3,11.46,11.46,0,0,0-9.8,0,9.43,9.43,0,0,0-3.3,3,15,15,0,0,0-1.8,4.3,20.74,20.74,0,0,0-.6,5A18.57,18.57,0,0,0,672.62,213.51Z"/><path class="cls-4" d="M732.72,199.51a9.68,9.68,0,0,0-1.9-2.2,8.16,8.16,0,0,0-2.6-1.4,10.52,10.52,0,0,0-7.9.6,9.43,9.43,0,0,0-3.3,3,15,15,0,0,0-1.8,4.3,20.74,20.74,0,0,0-.6,5,19.73,19.73,0,0,0,.6,4.8,14.41,14.41,0,0,0,1.8,4.2,9.6,9.6,0,0,0,3.3,3,10.43,10.43,0,0,0,4.9,1.1,7.76,7.76,0,0,0,6.1-2.4,10.72,10.72,0,0,0,2.7-6.3h8.3a20,20,0,0,1-1.7,6.6,15.26,15.26,0,0,1-3.6,5,16.22,16.22,0,0,1-5.2,3.2,17.6,17.6,0,0,1-6.6,1.1,19.21,19.21,0,0,1-8.1-1.6,16.48,16.48,0,0,1-6-4.3,20.5,20.5,0,0,1-3.8-6.4,23.15,23.15,0,0,1-1.3-8,23.73,23.73,0,0,1,1.3-8.1,18.29,18.29,0,0,1,3.8-6.5,17.62,17.62,0,0,1,6-4.4,19.21,19.21,0,0,1,8.1-1.6,20.46,20.46,0,0,1,6.1.9,15.61,15.61,0,0,1,5.1,2.7,14.25,14.25,0,0,1,3.7,4.4,18.38,18.38,0,0,1,1.9,6h-8.3A7.94,7.94,0,0,0,732.72,199.51Z"/><path class="cls-4" d="M767.62,189.11l14.6,39h-8.9l-3-8.7h-14.6l-3.1,8.7H744l14.8-39Zm.5,23.9-4.9-14.3h-.1L758,213Z"/><path class="cls-4" d="M794.22,189.11v31.8h19v7.2h-27.6v-39Z"/><path class="cls-4" d="M653.82,254.71a14,14,0,0,1,4.7.8,11.11,11.11,0,0,1,3.6,2.3,9.76,9.76,0,0,1,2.3,3.4,11.62,11.62,0,0,1,.8,4.2,12.66,12.66,0,0,1-1.4,6,8.63,8.63,0,0,1-4.7,3.8v.1a6.36,6.36,0,0,1,2.6,1.3,6.84,6.84,0,0,1,1.7,2.1,10.79,10.79,0,0,1,1,2.7c.2,1,.3,2,.4,3,0,.6.1,1.3.1,2.2a24.62,24.62,0,0,0,.2,2.6,18.66,18.66,0,0,0,.4,2.5,6.11,6.11,0,0,0,.9,2h-8.6a13.69,13.69,0,0,1-.9-4.4c-.1-1.7-.3-3.4-.5-4.9a7.81,7.81,0,0,0-1.9-4.5,6.48,6.48,0,0,0-4.6-1.4h-8.6v15.2h-8.6v-39Zm-3.1,17.6a6.26,6.26,0,0,0,4.4-1.3,5.47,5.47,0,0,0,1.5-4.3c0-1.9-.5-3.3-1.5-4.1a6.43,6.43,0,0,0-4.4-1.3h-9.4v11Z"/><path class="cls-4" d="M701.42,254.71v7.2h-20.6v8.4h18.9V277h-18.9v9.6h21v7.2h-29.6v-39h29.2Z"/><path class="cls-4" d="M714.12,284.11a6.74,6.74,0,0,0,1.9,2.2,8,8,0,0,0,2.8,1.3,11.94,11.94,0,0,0,3.3.4,22.86,22.86,0,0,0,2.5-.2,10.27,10.27,0,0,0,2.5-.7,5.75,5.75,0,0,0,1.9-1.5,3.65,3.65,0,0,0,.8-2.4,3.39,3.39,0,0,0-1-2.6,7.18,7.18,0,0,0-2.7-1.6,27.35,27.35,0,0,0-3.7-1.1c-1.4-.3-2.8-.7-4.2-1.1s-2.9-.8-4.3-1.3a14.57,14.57,0,0,1-3.7-2,10.09,10.09,0,0,1-2.7-3.1,9.47,9.47,0,0,1-1-4.6,9.8,9.8,0,0,1,1.3-5.2,12,12,0,0,1,3.4-3.7,15.58,15.58,0,0,1,4.7-2.2,18.61,18.61,0,0,1,5.2-.7,23.24,23.24,0,0,1,5.9.7,16.18,16.18,0,0,1,5,2.2,11,11,0,0,1,3.5,3.9,11.57,11.57,0,0,1,1.3,5.8h-8.3a7.72,7.72,0,0,0-.7-2.9,4.24,4.24,0,0,0-1.7-1.8,8.54,8.54,0,0,0-2.4-.9,13.58,13.58,0,0,0-2.9-.3,14.92,14.92,0,0,0-2.1.2,4.55,4.55,0,0,0-1.9.8,4.67,4.67,0,0,0-1.4,1.4,3.28,3.28,0,0,0-.5,2.1,3.58,3.58,0,0,0,.4,1.9,4,4,0,0,0,1.7,1.3,21.35,21.35,0,0,0,3.6,1.2c1.5.4,3.5.9,5.9,1.5a23.18,23.18,0,0,1,3,.8,17,17,0,0,1,3.9,1.8,10.74,10.74,0,0,1,3.3,3.4,9.83,9.83,0,0,1,1.4,5.4,12.08,12.08,0,0,1-1,5,10.84,10.84,0,0,1-3.1,4,15.32,15.32,0,0,1-5.1,2.6,24.77,24.77,0,0,1-7,.9,26.53,26.53,0,0,1-6.3-.8,15.77,15.77,0,0,1-5.4-2.5,12.83,12.83,0,0,1-3.7-4.3,13.2,13.2,0,0,1-1.3-6.2h8.3A6.56,6.56,0,0,0,714.12,284.11Z"/><path class="cls-4" d="M760.72,254.71a16.37,16.37,0,0,1,6.2,1.1,11.47,11.47,0,0,1,4.2,2.8,9.52,9.52,0,0,1,2.3,4,15.46,15.46,0,0,1,0,9.2,11.33,11.33,0,0,1-2.3,4,11.47,11.47,0,0,1-4.2,2.8,16.37,16.37,0,0,1-6.2,1.1h-9v14h-8.6v-39Zm-2.4,18.3a24.58,24.58,0,0,0,2.8-.2,6.19,6.19,0,0,0,2.4-.8,4.93,4.93,0,0,0,1.7-1.8,7.8,7.8,0,0,0,0-6,4.24,4.24,0,0,0-1.7-1.8,6.19,6.19,0,0,0-2.4-.8,26.35,26.35,0,0,0-2.8-.2h-6.7v11.7h6.7Z"/><path class="cls-4" d="M779.12,266.21a18.29,18.29,0,0,1,3.8-6.5,17.62,17.62,0,0,1,6-4.4,21.3,21.3,0,0,1,16.2,0,16.71,16.71,0,0,1,6,4.4,21,21,0,0,1,3.8,6.5,25.57,25.57,0,0,1,0,16.1,17.86,17.86,0,0,1-3.8,6.4,16.48,16.48,0,0,1-6,4.3,20.89,20.89,0,0,1-8.1,1.6,19.21,19.21,0,0,1-8.1-1.6,16.48,16.48,0,0,1-6-4.3,20.5,20.5,0,0,1-3.8-6.4,23.15,23.15,0,0,1-1.3-8A26.44,26.44,0,0,1,779.12,266.21Zm7.9,12.9a15.67,15.67,0,0,0,1.8,4.2,9.6,9.6,0,0,0,3.3,3,11.46,11.46,0,0,0,9.8,0,9.43,9.43,0,0,0,3.3-3,13.33,13.33,0,0,0,1.8-4.2,19.13,19.13,0,0,0,.6-4.8,20.74,20.74,0,0,0-.6-5,15,15,0,0,0-1.8-4.3,8,8,0,0,0-3.3-3,11.46,11.46,0,0,0-9.8,0,9.43,9.43,0,0,0-3.3,3,15,15,0,0,0-1.8,4.3,20.74,20.74,0,0,0-.6,5A18.57,18.57,0,0,0,787,279.11Z"/><path class="cls-4" d="M830.62,254.71l16.3,26.2h.1v-26.2h8v39h-8.6l-16.2-26.1h-.1v26.1h-8v-39Z"/><path class="cls-4" d="M869.12,284.11a6.74,6.74,0,0,0,1.9,2.2,8,8,0,0,0,2.8,1.3,11.94,11.94,0,0,0,3.3.4,22.86,22.86,0,0,0,2.5-.2,10.27,10.27,0,0,0,2.5-.7,5.75,5.75,0,0,0,1.9-1.5,3.65,3.65,0,0,0,.8-2.4,3.39,3.39,0,0,0-1-2.6,7.18,7.18,0,0,0-2.7-1.6,27.35,27.35,0,0,0-3.7-1.1c-1.4-.3-2.8-.7-4.2-1.1s-2.9-.8-4.3-1.3a14.57,14.57,0,0,1-3.7-2,10.09,10.09,0,0,1-2.7-3.1,9.47,9.47,0,0,1-1-4.6,9.8,9.8,0,0,1,1.3-5.2,12,12,0,0,1,3.4-3.7,15.58,15.58,0,0,1,4.7-2.2,18.61,18.61,0,0,1,5.2-.7,23.24,23.24,0,0,1,5.9.7,16.18,16.18,0,0,1,5,2.2,11,11,0,0,1,3.5,3.9,11.57,11.57,0,0,1,1.3,5.8h-8.3a7.72,7.72,0,0,0-.7-2.9,4.24,4.24,0,0,0-1.7-1.8,8.54,8.54,0,0,0-2.4-.9,13.58,13.58,0,0,0-2.9-.3,14.92,14.92,0,0,0-2.1.2,4.55,4.55,0,0,0-1.9.8,4.67,4.67,0,0,0-1.4,1.4,3.28,3.28,0,0,0-.5,2.1,3.58,3.58,0,0,0,.4,1.9,4,4,0,0,0,1.7,1.3,21.35,21.35,0,0,0,3.6,1.2c1.5.4,3.5.9,5.9,1.5a23.18,23.18,0,0,1,3,.8,17,17,0,0,1,3.9,1.8,10.74,10.74,0,0,1,3.3,3.4,9.83,9.83,0,0,1,1.4,5.4,12.08,12.08,0,0,1-1,5,10.84,10.84,0,0,1-3.1,4,15.32,15.32,0,0,1-5.1,2.6,24.77,24.77,0,0,1-7,.9,26.53,26.53,0,0,1-6.3-.8,15.77,15.77,0,0,1-5.4-2.5,12.83,12.83,0,0,1-3.7-4.3,13.2,13.2,0,0,1-1.3-6.2h8.3A5.41,5.41,0,0,0,869.12,284.11Z"/><path class="cls-4" d="M927.22,254.71v7.2h-20.6v8.4h18.9V277h-18.9v9.6h21v7.2H898v-39h29.2Z"/><path class="cls-4" d="M655.82,359a14.12,14.12,0,0,1-5.6,1.2,19.21,19.21,0,0,1-8.1-1.6,16.48,16.48,0,0,1-6-4.3,20.5,20.5,0,0,1-3.8-6.4,23.15,23.15,0,0,1-1.3-8,23.73,23.73,0,0,1,1.3-8.1,18.29,18.29,0,0,1,3.8-6.5,17.62,17.62,0,0,1,6-4.4,19.21,19.21,0,0,1,8.1-1.6,19,19,0,0,1,5.8.9,15.61,15.61,0,0,1,5.1,2.7,13.88,13.88,0,0,1,3.7,4.3,14.08,14.08,0,0,1,1.8,5.9h-8.2a8,8,0,0,0-3-4.9,8.55,8.55,0,0,0-5.3-1.6,10.43,10.43,0,0,0-4.9,1.1,9.43,9.43,0,0,0-3.3,3,15,15,0,0,0-1.8,4.3,20.74,20.74,0,0,0-.6,5,19.73,19.73,0,0,0,.6,4.8,14.41,14.41,0,0,0,1.8,4.2,9.6,9.6,0,0,0,3.3,3,10.43,10.43,0,0,0,4.9,1.1,8.43,8.43,0,0,0,9.3-8.5h-8.6v-6.4h16.4v21.1h-5.5l-.9-4.4A12.14,12.14,0,0,1,655.82,359Z"/><path class="cls-4" d="M702.92,356.31c-3,2.6-7,3.9-12.2,3.9s-9.4-1.3-12.3-3.8-4.3-6.5-4.3-11.8v-24.3h8.6v24.2a15.53,15.53,0,0,0,.3,3.1,8.08,8.08,0,0,0,1.1,2.7,6.54,6.54,0,0,0,2.4,1.9,9.64,9.64,0,0,0,4.2.7c3.1,0,5.2-.7,6.3-2s1.7-3.5,1.7-6.4v-24.3h8.6v24.3C707.32,349.81,705.82,353.71,702.92,356.31Z"/><path class="cls-4" d="M723.32,320.21v39h-8.6v-39Z"/><path class="cls-4" d="M747.72,320.21a19.79,19.79,0,0,1,7,1.2,15,15,0,0,1,5.6,3.6,16.48,16.48,0,0,1,3.7,6,24.12,24.12,0,0,1,1.3,8.5,28.45,28.45,0,0,1-1.1,7.9,15.87,15.87,0,0,1-8.8,10.3,18.71,18.71,0,0,1-7.8,1.5h-16.8v-39Zm-.6,31.8a11.33,11.33,0,0,0,3.6-.6,7.89,7.89,0,0,0,3.1-2,10.5,10.5,0,0,0,2.2-3.6,17.28,17.28,0,0,0,.8-5.5,21.46,21.46,0,0,0-.6-5.3,11.06,11.06,0,0,0-1.9-4.1,8.48,8.48,0,0,0-3.5-2.6,13.64,13.64,0,0,0-5.3-.9h-6.1V352Z"/><path class="cls-4" d="M800.52,320.21v7.2h-20.6v8.4h18.9v6.7h-18.9v9.6h21v7.2h-29.6v-39h29.2Z"/></g><g id="g3456"><g id="g3458"><g id="g3464"><g id="path3466"><path class="cls-4" d="M681.31,125.07c0-13.7-6.9-21.8-17.8-21.8s-17.8,8.1-17.8,21.8,6.9,22.4,17.8,22.4,17.8-8.7,17.8-22.4m-54.1,0c0-22.4,14.7-35.2,36.3-35.2s36.3,12.9,36.3,35.2-14.7,35.8-36.3,35.8-36.3-13.4-36.3-35.8"/></g></g><g id="g3468"><g id="path3470"><path class="cls-4" d="M709.68,151l10.4-10.6c5.7,4.2,13.1,7.2,19.6,7.2,7.5,0,11.2-2.5,11.2-6.6,0-4.3-4.5-5.7-11.5-8.2L729,129c-8.3-2.9-16.1-8.7-16.1-18.7,0-11.4,11.8-20.4,28.5-20.4,9.2,0,18.8,3.1,25.7,9l-9.1,9.8c-5.3-3.5-10.3-5.4-16.6-5.4s-10.2,2.2-10.2,6.1c0,4.2,5.2,5.7,12.2,8.1l10.2,3.5c9.8,3.4,15.9,9,15.9,18.6,0,11.4-11.1,21.2-30.1,21.2-10.5.1-21.5-3.3-29.7-9.8"/></g></g><g id="g3472"><g id="path3474"><path class="cls-4" d="M784.67,91.07h19.7l13,30.4c1.6,4,3,8.4,4.6,12.7h.5c1.6-4.2,3-8.6,4.6-12.7l12.6-30.4h19.7v68.5H843v-25.1c0-6.7,1.5-16.6,2.3-23.3h-.5l-6.6,16.2-11.3,26.2h-10l-11.3-26.2-6.4-16.2h-.5c.9,6.6,2.3,16.6,2.3,23.3v25.1h-16.3Z"/></g></g><g id="g3476"><g id="path3478"><path class="cls-4" d="M873,151l10.4-10.6c5.7,4.2,13.1,7.2,19.6,7.2,7.5,0,11.2-2.5,11.2-6.6,0-4.3-4.5-5.7-11.5-8.2l-10.4-3.8c-8.3-2.9-16.1-8.7-16.1-18.7,0-11.4,11.8-20.4,28.5-20.4,9.2,0,18.8,3.1,25.7,9l-9.1,9.8c-5.3-3.5-10.3-5.4-16.6-5.4s-10.2,2.2-10.2,6.1c0,4.2,5.2,5.7,12.2,8.1l10.2,3.5c9.8,3.4,15.9,9,15.9,18.6,0,11.4-11.1,21.2-30.1,21.2-10.5.1-21.5-3.3-29.7-9.8"/></g></g></g></g><g id="path3454"><path id="SVGID" class="cls-4" d="M309.92,93.71a13.08,13.08,0,0,0,2.2,7.3h0l-31.8,59.7a20.08,20.08,0,0,0-2.5-.1h0a23.89,23.89,0,0,0-13.2,4h0l-75.4-35.7v-.4h0a21.57,21.57,0,0,0-21.6-21.6h0a21.57,21.57,0,0,0-21.6,21.6h0a21.57,21.57,0,0,0,21.6,21.6h0a21.79,21.79,0,0,0,17.8-9.3h0l70.9,33.6a23.06,23.06,0,0,0-2.2,9.8h0a24.39,24.39,0,0,0,3.4,12.3h0l-39.7,41.8a34.87,34.87,0,0,0-21-7h0a34.92,34.92,0,0,0-31.2,19.1h0l-57.7-27.3c0-.5.1-1,.1-1.5h0a17.67,17.67,0,0,0-17.7-17.7h0a17.67,17.67,0,0,0-17.7,17.7h0a17.67,17.67,0,0,0,17.7,17.7h0a17.56,17.56,0,0,0,12.3-5h0l59.3,28.1a27.28,27.28,0,0,0-.3,4.1h0a35,35,0,0,0,10.7,25.2h0l-30.6,45.5c-.4,0-.8-.1-1.3-.1h0a13.19,13.19,0,0,0-13.2,13.2h0a13.19,13.19,0,0,0,13.2,13.2h0a13.19,13.19,0,0,0,13.2-13.2h0a12.6,12.6,0,0,0-1.6-6.1h0l30.5-45.5a34.93,34.93,0,0,0,14.1,3h0a34.8,34.8,0,0,0,24.9-10.4h0l36.9,27.4a24.16,24.16,0,0,0-.5,4.7h0a21.57,21.57,0,0,0,21.6,21.6h0a21.63,21.63,0,0,0,20.7-15.3h0l80.3-23.6a29,29,0,0,0,25.5,15.1h0a28.7,28.7,0,0,0,16.6-5.2h0l33.9,31.8a16.55,16.55,0,0,0-.3,3.2h0a15.45,15.45,0,0,0,15.5,15.5h0a15.45,15.45,0,0,0,15.5-15.5h0a15.45,15.45,0,0,0-15.5-15.5h0a14.43,14.43,0,0,0-7.7,2.2h0l-32.8-30.8a29.14,29.14,0,0,0,4-14.7h0a29.1,29.1,0,0,0-23.8-28.6h0l-.3-90.5a18.89,18.89,0,0,0,7.7-4.6h0l64.9,40.7,56,78.6a10.57,10.57,0,0,0-.8,4h0a11.18,11.18,0,0,0,11.2,11.2h0a11.18,11.18,0,0,0,11.2-11.2h0a11.18,11.18,0,0,0-11.2-11.2h-.3L496,205l49.6-39.5a17.14,17.14,0,0,0,9,2.5h0a17.67,17.67,0,0,0,17.7-17.7h0a17.67,17.67,0,0,0-17.7-17.7h0a17.67,17.67,0,0,0-17.7,17.7h0a16.11,16.11,0,0,0,.9,5.4h0l-49.1,39.1-.7-1-2.5,1.8-61.8-38.7v-.8h0a17.67,17.67,0,0,0-17.7-17.7h0a17.44,17.44,0,0,0-9.3,2.7h0l-60.9-46.7c0-.2.1-.4.1-.6h0a13.19,13.19,0,0,0-13.2-13.2h0a13.09,13.09,0,0,0-12.8,13.1m-8.8,95.4a26.07,26.07,0,0,0,.5-4.8h0a24,24,0,0,0-9.5-19h0l31.1-58.5a12.41,12.41,0,0,0,6.6-1.9h0l59.7,45.8a17,17,0,0,0-.8,5.1h0a17.66,17.66,0,0,0,10.2,16h0l.3,91.9a32.55,32.55,0,0,0-4.4,1.5h0l-93.7-76.1Zm-5.9,11.3,89.2,72.6a28.94,28.94,0,0,0-7.1,19h0c0,.7.1,1.4.1,2h0l-76.9,22.6a21.77,21.77,0,0,0-20.6-15.1h0a21.78,21.78,0,0,0-15,6h0l-36-26.7a34.91,34.91,0,0,0,3.1-14.5h0a35.29,35.29,0,0,0-5.6-19h0l40.2-42.3a23.54,23.54,0,0,0,11.2,2.8h0a22.94,22.94,0,0,0,17.4-7.4"/><g class="cls-5"><rect class="cls-4" x="226.42" y="200.41" width="3.1" height="116.2"/></g><g class="cls-5"><rect class="cls-4" x="229.52" y="200.41" width="6.2" height="116.2"/></g><g class="cls-5"><rect class="cls-4" x="235.82" y="200.41" width="6.2" height="116.2"/></g><g class="cls-5"><rect class="cls-4" x="242.02" y="200.41" width="6.2" height="116.2"/></g><g class="cls-5"><rect class="cls-4" x="248.22" y="200.41" width="6.2" height="116.2"/></g><g class="cls-5"><rect class="cls-4" x="254.52" y="200.41" width="6.2" height="116.2"/></g><g class="cls-5"><rect class="cls-4" x="260.72" y="200.41" width="6.2" height="116.2"/></g><g class="cls-5"><rect class="cls-4" x="266.92" y="200.41" width="6.2" height="116.2"/></g><g class="cls-5"><rect class="cls-4" x="273.22" y="200.41" width="6.2" height="116.2"/></g><g class="cls-5"><rect class="cls-4" x="279.42" y="200.41" width="6.2" height="116.2"/></g><g class="cls-5"><rect class="cls-4" x="285.72" y="200.41" width="6.2" height="116.2"/></g><g class="cls-5"><rect class="cls-4" x="291.92" y="200.41" width="6.2" height="116.2"/></g><g class="cls-5"><rect class="cls-4" x="298.12" y="200.41" width="6.2" height="116.2"/></g><g class="cls-5"><rect class="cls-4" x="304.42" y="200.41" width="6.2" height="116.2"/></g><g class="cls-5"><rect class="cls-4" x="310.62" y="200.41" width="6.2" height="116.2"/></g><g class="cls-5"><rect class="cls-4" x="316.82" y="200.41" width="6.2" height="116.2"/></g><g class="cls-5"><rect class="cls-4" x="323.12" y="200.41" width="6.2" height="116.2"/></g><g class="cls-5"><rect class="cls-4" x="329.32" y="200.41" width="6.2" height="116.2"/></g><g class="cls-5"><rect class="cls-4" x="335.52" y="200.41" width="6.2" height="116.2"/></g><g class="cls-5"><rect class="cls-4" x="341.82" y="200.41" width="6.2" height="116.2"/></g><g class="cls-5"><rect class="cls-4" x="348.02" y="200.41" width="6.2" height="116.2"/></g><g class="cls-5"><rect class="cls-4" x="354.22" y="200.41" width="6.2" height="116.2"/></g><g class="cls-5"><rect class="cls-4" x="360.52" y="200.41" width="6.2" height="116.2"/></g><g class="cls-5"><rect class="cls-4" x="366.72" y="200.41" width="6.2" height="116.2"/></g><g class="cls-5"><rect class="cls-4" x="373.02" y="200.41" width="6.2" height="116.2"/></g><g class="cls-5"><rect class="cls-4" x="379.22" y="200.41" width="5.2" height="116.2"/></g><g class="cls-5"><rect class="cls-4" x="292.02" y="105.01" width="6.1" height="160.3"/></g><g class="cls-5"><rect class="cls-4" x="298.12" y="105.01" width="6.2" height="160.3"/></g><g class="cls-5"><rect class="cls-4" x="304.42" y="105.01" width="6.2" height="160.3"/></g><g class="cls-5"><rect class="cls-4" x="310.62" y="105.01" width="6.2" height="160.3"/></g><g class="cls-5"><rect class="cls-4" x="316.82" y="105.01" width="6.2" height="160.3"/></g><g class="cls-5"><rect class="cls-4" x="323.12" y="105.01" width="6.2" height="160.3"/></g><g class="cls-5"><rect class="cls-4" x="329.32" y="105.01" width="6.2" height="160.3"/></g><g class="cls-5"><rect class="cls-4" x="335.52" y="105.01" width="6.2" height="160.3"/></g><g class="cls-5"><rect class="cls-4" x="341.82" y="105.01" width="6.2" height="160.3"/></g><g class="cls-5"><rect class="cls-4" x="348.02" y="105.01" width="6.2" height="160.3"/></g><g class="cls-5"><rect class="cls-4" x="354.22" y="105.01" width="6.2" height="160.3"/></g><g class="cls-5"><rect class="cls-4" x="360.52" y="105.01" width="6.2" height="160.3"/></g><g class="cls-5"><rect class="cls-4" x="366.72" y="105.01" width="6.2" height="160.3"/></g><g class="cls-5"><rect class="cls-4" x="373.02" y="105.01" width="6.2" height="160.3"/></g><g class="cls-5"><rect class="cls-4" x="379.22" y="105.01" width="6.2" height="160.3"/></g><g class="cls-5"><rect class="cls-4" x="385.42" y="105.01" width="6.2" height="160.3"/></g><g class="cls-5"><rect class="cls-4" x="391.72" y="105.01" width="6.2" height="160.3"/></g><g class="cls-5"><rect class="cls-4" x="397.92" y="105.01" width="1.3" height="160.3"/></g><g class="cls-5"><rect class="cls-4" x="72.82" y="80.61" width="0.8" height="285.8"/></g><g class="cls-5"><rect class="cls-4" x="73.62" y="80.61" width="6.2" height="285.8"/></g><g class="cls-5"><rect class="cls-4" x="79.92" y="80.61" width="6.2" height="285.8"/></g><g class="cls-5"><rect class="cls-4" x="86.12" y="80.61" width="6.2" height="285.8"/></g><g class="cls-5"><rect class="cls-4" x="92.32" y="80.61" width="6.2" height="285.8"/></g><g class="cls-5"><rect class="cls-4" x="98.62" y="80.61" width="6.2" height="285.8"/></g><g class="cls-5"><rect class="cls-4" x="104.82" y="80.61" width="6.2" height="285.8"/></g><g class="cls-5"><rect class="cls-4" x="111.02" y="80.61" width="6.2" height="285.8"/></g><g class="cls-5"><rect class="cls-4" x="117.32" y="80.61" width="6.2" height="285.8"/></g><g class="cls-5"><rect class="cls-4" x="123.52" y="80.61" width="6.2" height="285.8"/></g><g class="cls-5"><rect class="cls-4" x="129.72" y="80.61" width="6.2" height="285.8"/></g><g class="cls-5"><rect class="cls-4" x="136.02" y="80.61" width="6.2" height="285.8"/></g><g class="cls-5"><rect class="cls-4" x="142.22" y="80.61" width="6.2" height="285.8"/></g><g class="cls-5"><rect class="cls-4" x="148.52" y="80.61" width="6.2" height="285.8"/></g><g class="cls-5"><rect class="cls-4" x="154.72" y="80.61" width="6.2" height="285.8"/></g><g class="cls-5"><rect class="cls-4" x="160.92" y="80.61" width="6.2" height="285.8"/></g><g class="cls-5"><rect class="cls-4" x="167.22" y="80.61" width="6.2" height="285.8"/></g><g class="cls-5"><rect class="cls-4" x="173.42" y="80.61" width="6.2" height="285.8"/></g><g class="cls-5"><rect class="cls-4" x="179.62" y="80.61" width="6.2" height="285.8"/></g><g class="cls-5"><rect class="cls-4" x="185.92" y="80.61" width="6.2" height="285.8"/></g><g class="cls-5"><rect class="cls-4" x="192.12" y="80.61" width="6.2" height="285.8"/></g><g class="cls-5"><rect class="cls-4" x="198.32" y="80.61" width="6.2" height="285.8"/></g><g class="cls-5"><rect class="cls-4" x="204.62" y="80.61" width="6.2" height="285.8"/></g><g class="cls-5"><rect class="cls-4" x="210.82" y="80.61" width="6.2" height="285.8"/></g><g class="cls-5"><rect class="cls-4" x="217.12" y="80.61" width="6.2" height="285.8"/></g><g class="cls-5"><rect class="cls-4" x="223.32" y="80.61" width="6.2" height="285.8"/></g><g class="cls-5"><rect class="cls-4" x="229.52" y="80.61" width="6.2" height="285.8"/></g><g class="cls-5"><rect class="cls-4" x="235.82" y="80.61" width="6.2" height="285.8"/></g><g class="cls-5"><rect class="cls-4" x="242.02" y="80.61" width="6.2" height="285.8"/></g><g class="cls-5"><rect class="cls-4" x="248.22" y="80.61" width="6.2" height="285.8"/></g><g class="cls-5"><rect class="cls-4" x="254.52" y="80.61" width="6.2" height="285.8"/></g><g class="cls-5"><rect class="cls-4" x="260.72" y="80.61" width="6.2" height="285.8"/></g><g class="cls-5"><rect class="cls-4" x="266.92" y="80.61" width="6.2" height="285.8"/></g><g class="cls-5"><rect class="cls-4" x="273.22" y="80.61" width="6.2" height="285.8"/></g><g class="cls-5"><rect class="cls-4" x="279.42" y="80.61" width="6.2" height="285.8"/></g><g class="cls-5"><rect class="cls-4" x="285.72" y="80.61" width="6.2" height="285.8"/></g><g class="cls-5"><rect class="cls-4" x="291.92" y="80.61" width="6.2" height="285.8"/></g><g class="cls-5"><rect class="cls-4" x="298.12" y="80.61" width="6.2" height="285.8"/></g><g class="cls-5"><rect class="cls-4" x="304.42" y="80.61" width="6.2" height="285.8"/></g><g class="cls-5"><rect class="cls-4" x="310.62" y="80.61" width="6.2" height="285.8"/></g><g class="cls-5"><rect class="cls-4" x="316.82" y="80.61" width="6.2" height="285.8"/></g><g class="cls-5"><rect class="cls-4" x="323.12" y="80.61" width="6.2" height="285.8"/></g><g class="cls-5"><rect class="cls-4" x="329.32" y="80.61" width="6.2" height="285.8"/></g><g class="cls-5"><rect class="cls-4" x="335.52" y="80.61" width="6.2" height="285.8"/></g><g class="cls-5"><rect class="cls-4" x="341.82" y="80.61" width="6.2" height="285.8"/></g><g class="cls-5"><rect class="cls-4" x="348.02" y="80.61" width="6.2" height="285.8"/></g><g class="cls-5"><rect class="cls-4" x="354.22" y="80.61" width="6.2" height="285.8"/></g><g class="cls-5"><rect class="cls-4" x="360.52" y="80.61" width="6.2" height="285.8"/></g><g class="cls-5"><rect class="cls-4" x="366.72" y="80.61" width="6.2" height="285.8"/></g><g class="cls-5"><rect class="cls-4" x="373.02" y="80.61" width="6.2" height="285.8"/></g><g class="cls-5"><rect class="cls-4" x="379.22" y="80.61" width="6.2" height="285.8"/></g><g class="cls-5"><rect class="cls-4" x="385.42" y="80.61" width="6.2" height="285.8"/></g><g class="cls-5"><rect class="cls-4" x="391.72" y="80.61" width="6.2" height="285.8"/></g><g class="cls-5"><rect class="cls-4" x="397.92" y="80.61" width="6.2" height="285.8"/></g><g class="cls-5"><rect class="cls-4" x="404.12" y="80.61" width="6.2" height="285.8"/></g><g class="cls-5"><rect class="cls-4" x="410.42" y="80.61" width="6.2" height="285.8"/></g><g class="cls-5"><rect class="cls-4" x="416.62" y="80.61" width="6.2" height="285.8"/></g><g class="cls-5"><rect class="cls-4" x="422.82" y="80.61" width="6.2" height="285.8"/></g><g class="cls-5"><rect class="cls-4" x="429.12" y="80.61" width="6.2" height="285.8"/></g><g class="cls-5"><rect class="cls-4" x="435.32" y="80.61" width="6.2" height="285.8"/></g><g class="cls-5"><rect class="cls-4" x="441.62" y="80.61" width="6.2" height="285.8"/></g><g class="cls-5"><rect class="cls-4" x="447.82" y="80.61" width="6.2" height="285.8"/></g><g class="cls-5"><rect class="cls-4" x="454.02" y="80.61" width="6.2" height="285.8"/></g><g class="cls-5"><rect class="cls-4" x="460.32" y="80.61" width="6.2" height="285.8"/></g><g class="cls-5"><rect class="cls-4" x="466.52" y="80.61" width="6.2" height="285.8"/></g><g class="cls-5"><rect class="cls-4" x="472.72" y="80.61" width="6.2" height="285.8"/></g><g class="cls-5"><rect class="cls-4" x="479.02" y="80.61" width="6.2" height="285.8"/></g><g class="cls-5"><rect class="cls-4" x="485.22" y="80.61" width="6.2" height="285.8"/></g><g class="cls-5"><rect class="cls-4" x="491.42" y="80.61" width="6.2" height="285.8"/></g><g class="cls-5"><rect class="cls-4" x="497.72" y="80.61" width="6.2" height="285.8"/></g><g class="cls-5"><rect class="cls-4" x="503.92" y="80.61" width="6.2" height="285.8"/></g><g class="cls-5"><rect class="cls-4" x="510.22" y="80.61" width="6.2" height="285.8"/></g><g class="cls-5"><rect class="cls-4" x="516.42" y="80.61" width="6.2" height="285.8"/></g><g class="cls-5"><rect class="cls-4" x="522.62" y="80.61" width="6.2" height="285.8"/></g><g class="cls-5"><rect class="cls-4" x="528.92" y="80.61" width="6.2" height="285.8"/></g><g class="cls-5"><rect class="cls-4" x="535.12" y="80.61" width="6.2" height="285.8"/></g><g class="cls-5"><rect class="cls-4" x="541.32" y="80.61" width="6.2" height="285.8"/></g><g class="cls-5"><rect class="cls-4" x="547.62" y="80.61" width="6.2" height="285.8"/></g><g class="cls-5"><rect class="cls-4" x="553.82" y="80.61" width="6.2" height="285.8"/></g><g class="cls-5"><rect class="cls-4" x="560.02" y="80.61" width="6.2" height="285.8"/></g><g class="cls-5"><rect class="cls-4" x="566.32" y="80.61" width="6.2" height="285.8"/></g></g><rect class="cls-6" x="33.52" y="36.81" width="987.3" height="372.7"/></svg>