<svg id="svg3390" xmlns="http://www.w3.org/2000/svg" xmlns:xlink="http://www.w3.org/1999/xlink" viewBox="0 0 1054.2 453.3"><defs><style>.cls-1,.cls-8{fill:none;}.cls-2{fill:url(#linear-gradient);}.cls-3,.cls-4{isolation:isolate;}.cls-3{font-size:54.66px;font-family:HelveticaNeue-Bold, Helvetica Neue;font-weight:700;}.cls-3,.cls-6{fill:#fff;}.cls-5{letter-spacing:-0.11em;}.cls-7{clip-path:url(#clip-path);}.cls-8{stroke:#fff;stroke-miterlimit:10;stroke-width:6px;}</style><linearGradient id="linear-gradient" y1="229.35" x2="1054.2" y2="229.35" gradientTransform="matrix(1, 0, 0, -1, 0, 456)" gradientUnits="userSpaceOnUse"><stop offset="0" stop-color="#f9a24c"/><stop offset="1" stop-color="#f47e4e"/></linearGradient><clipPath id="clip-path"><path class="cls-1" d="M295.1,96.9a13.08,13.08,0,0,0,2.2,7.3h0L265.6,164a20.08,20.08,0,0,0-2.5-.1h0a23.89,23.89,0,0,0-13.2,4h0l-75.4-35.7v-.4h0a21.57,21.57,0,0,0-21.6-21.6h0a21.57,21.57,0,0,0-21.6,21.6h0a21.57,21.57,0,0,0,21.6,21.6h0a21.79,21.79,0,0,0,17.8-9.3h0l70.9,33.6a23.06,23.06,0,0,0-2.2,9.8h0a24.39,24.39,0,0,0,3.4,12.3h0l-39.7,41.8a34.87,34.87,0,0,0-21-7h0a34.92,34.92,0,0,0-31.2,19.1h0L93.2,226.4c0-.5.1-1,.1-1.5h0a17.67,17.67,0,0,0-17.7-17.7h0a17.67,17.67,0,0,0-17.7,17.7h0a17.67,17.67,0,0,0,17.7,17.7h0a17.56,17.56,0,0,0,12.3-5h0l59.3,28.1a27.28,27.28,0,0,0-.3,4.1h0A35,35,0,0,0,157.6,295h0L127,340.5c-.4,0-.8-.1-1.3-.1h0a13.19,13.19,0,0,0-13.2,13.2h0a13.19,13.19,0,0,0,13.2,13.2h0a13.19,13.19,0,0,0,13.2-13.2h0a12.6,12.6,0,0,0-1.6-6.1h0L167.8,302a34.93,34.93,0,0,0,14.1,3h0a34.8,34.8,0,0,0,24.9-10.4h0L243.7,322a24.16,24.16,0,0,0-.5,4.7h0a21.57,21.57,0,0,0,21.6,21.6h0A21.63,21.63,0,0,0,285.5,333h0l80.3-23.6a29,29,0,0,0,25.5,15.1h0a28.7,28.7,0,0,0,16.6-5.2h0l33.9,31.8a16.55,16.55,0,0,0-.3,3.2h0A15.45,15.45,0,0,0,457,369.8h0a15.45,15.45,0,0,0,15.5-15.5h0A15.45,15.45,0,0,0,457,338.8h0a14.43,14.43,0,0,0-7.7,2.2h0l-32.8-30.8a29.14,29.14,0,0,0,4-14.7h0a29.1,29.1,0,0,0-23.8-28.6h0l-.3-90.5a18.89,18.89,0,0,0,7.7-4.6h0L469,212.5l56,78.6a10.57,10.57,0,0,0-.8,4h0a11.18,11.18,0,0,0,11.2,11.2h0a11.18,11.18,0,0,0,11.2-11.2h0a11.18,11.18,0,0,0-11.2-11.2h-.3l-53.8-75.6,49.6-39.5a17.14,17.14,0,0,0,9,2.5h0a17.67,17.67,0,0,0,17.7-17.7h0a17.67,17.67,0,0,0-17.7-17.7h0a17.67,17.67,0,0,0-17.7,17.7h0a16.11,16.11,0,0,0,.9,5.4h0L474,198.1l-.7-1-2.5,1.8L409.2,160v-.8h0a17.67,17.67,0,0,0-17.7-17.7h0a17.44,17.44,0,0,0-9.3,2.7h0L321.3,97.5c0-.2.1-.4.1-.6h0a13.19,13.19,0,0,0-13.2-13.2h0a13.3,13.3,0,0,0-13.1,13.2m-8.9,95.4a26.07,26.07,0,0,0,.5-4.8h0a24,24,0,0,0-9.5-19h0L308.3,110a12.41,12.41,0,0,0,6.6-1.9h0l59.7,45.8a17,17,0,0,0-.8,5.1h0A17.66,17.66,0,0,0,384,175h0l.3,91.9a32.55,32.55,0,0,0-4.4,1.5h0l-93.7-76.1Zm-5.8,11.3,89.2,72.6a28.94,28.94,0,0,0-7.1,19h0c0,.7.1,1.4.1,2h0l-76.9,22.6a21.77,21.77,0,0,0-20.6-15.1h0a21.78,21.78,0,0,0-15,6h0l-36-26.7a34.91,34.91,0,0,0,3.1-14.5h0a35.29,35.29,0,0,0-5.6-19h0l40.2-42.3A23.54,23.54,0,0,0,263,211h0a22.94,22.94,0,0,0,17.4-7.4"/></clipPath></defs><rect class="cls-2" width="1054.2" height="453.3"/><text class="cls-3" transform="translate(630.36 224.23)"><tspan xml:space="preserve">        </tspan></text><g class="cls-4"><text class="cls-3" transform="translate(630.36 224.23)">MEDICAL</text><text class="cls-3" transform="translate(630.36 289.83)">SUPP<tspan class="cls-5" x="148.88" y="0">L</tspan><tspan x="175.22" y="0">Y</tspan></text><text class="cls-3" transform="translate(630.36 355.43)">GUIDE</text></g><g id="g3456"><g id="g3458"><g id="g3464"><path id="path3466" class="cls-6" d="M682,121.16c0-13.7-6.9-21.8-17.8-21.8s-17.8,8.1-17.8,21.8,6.9,22.4,17.8,22.4S682,135,682,121.16Zm-54.1,0c0-22.4,14.7-35.2,36.3-35.2s36.3,12.9,36.3,35.2-14.7,35.8-36.3,35.8-36.3-13.4-36.3-35.8Z"/></g><g id="g3468"><path id="path3470" class="cls-6" d="M710.36,147.14l10.4-10.6c5.7,4.2,13.1,7.2,19.6,7.2,7.5,0,11.2-2.5,11.2-6.6,0-4.3-4.5-5.7-11.5-8.2l-10.4-3.8c-8.3-2.9-16.1-8.7-16.1-18.7,0-11.4,11.8-20.4,28.5-20.4,9.2,0,18.8,3.1,25.7,9l-9.1,9.8c-5.3-3.5-10.3-5.4-16.6-5.4s-10.2,2.2-10.2,6.1c0,4.2,5.2,5.7,12.2,8.1l10.2,3.5c9.8,3.4,15.9,9,15.9,18.6,0,11.4-11.1,21.2-30.1,21.2-10.5.1-21.5-3.3-29.7-9.8Z"/></g><g id="g3472"><path id="path3474" class="cls-6" d="M785.35,87.26h19.7l13,30.4c1.6,4,3,8.4,4.6,12.7h.5c1.6-4.2,3-8.6,4.6-12.7l12.6-30.4h19.7v68.5h-16.4v-25.1c0-6.7,1.5-16.6,2.3-23.3h-.5l-6.6,16.2-11.4,26.2h-10l-11.3-26.2-6.4-16.2h-.5c.9,6.6,2.3,16.6,2.3,23.3v25.1h-16.2V87.26Z"/></g><g id="g3476"><path id="path3478" class="cls-6" d="M873.64,147.14l10.4-10.6c5.7,4.2,13.1,7.2,19.6,7.2,7.5,0,11.2-2.5,11.2-6.6,0-4.3-4.5-5.7-11.5-8.2l-10.4-3.8c-8.3-2.9-16.1-8.7-16.1-18.7,0-11.4,11.8-20.4,28.5-20.4,9.2,0,18.8,3.1,25.7,9l-9.1,9.8c-5.3-3.5-10.3-5.4-16.6-5.4s-10.2,2.2-10.2,6.1c0,4.2,5.2,5.7,12.2,8.1l10.2,3.5c9.8,3.4,15.9,9,15.9,18.6,0,11.4-11.1,21.2-30.1,21.2-10.5.1-21.5-3.3-29.7-9.8Z"/></g></g></g><g id="path3454"><path id="SVGID" class="cls-6" d="M295.1,96.9a13.08,13.08,0,0,0,2.2,7.3h0L265.6,164a20.08,20.08,0,0,0-2.5-.1h0a23.89,23.89,0,0,0-13.2,4h0l-75.4-35.7v-.4h0a21.57,21.57,0,0,0-21.6-21.6h0a21.57,21.57,0,0,0-21.6,21.6h0a21.57,21.57,0,0,0,21.6,21.6h0a21.79,21.79,0,0,0,17.8-9.3h0l70.9,33.6a23.06,23.06,0,0,0-2.2,9.8h0a24.39,24.39,0,0,0,3.4,12.3h0l-39.7,41.8a34.87,34.87,0,0,0-21-7h0a34.92,34.92,0,0,0-31.2,19.1h0L93.2,226.4c0-.5.1-1,.1-1.5h0a17.67,17.67,0,0,0-17.7-17.7h0a17.67,17.67,0,0,0-17.7,17.7h0a17.67,17.67,0,0,0,17.7,17.7h0a17.56,17.56,0,0,0,12.3-5h0l59.3,28.1a27.28,27.28,0,0,0-.3,4.1h0A35,35,0,0,0,157.6,295h0L127,340.5c-.4,0-.8-.1-1.3-.1h0a13.19,13.19,0,0,0-13.2,13.2h0a13.19,13.19,0,0,0,13.2,13.2h0a13.19,13.19,0,0,0,13.2-13.2h0a12.6,12.6,0,0,0-1.6-6.1h0L167.8,302a34.93,34.93,0,0,0,14.1,3h0a34.8,34.8,0,0,0,24.9-10.4h0L243.7,322a24.16,24.16,0,0,0-.5,4.7h0a21.57,21.57,0,0,0,21.6,21.6h0A21.63,21.63,0,0,0,285.5,333h0l80.3-23.6a29,29,0,0,0,25.5,15.1h0a28.7,28.7,0,0,0,16.6-5.2h0l33.9,31.8a16.55,16.55,0,0,0-.3,3.2h0A15.45,15.45,0,0,0,457,369.8h0a15.45,15.45,0,0,0,15.5-15.5h0A15.45,15.45,0,0,0,457,338.8h0a14.43,14.43,0,0,0-7.7,2.2h0l-32.8-30.8a29.14,29.14,0,0,0,4-14.7h0a29.1,29.1,0,0,0-23.8-28.6h0l-.3-90.5a18.89,18.89,0,0,0,7.7-4.6h0L469,212.5l56,78.6a10.57,10.57,0,0,0-.8,4h0a11.18,11.18,0,0,0,11.2,11.2h0a11.18,11.18,0,0,0,11.2-11.2h0a11.18,11.18,0,0,0-11.2-11.2h-.3l-53.8-75.6,49.6-39.5a17.14,17.14,0,0,0,9,2.5h0a17.67,17.67,0,0,0,17.7-17.7h0a17.67,17.67,0,0,0-17.7-17.7h0a17.67,17.67,0,0,0-17.7,17.7h0a16.11,16.11,0,0,0,.9,5.4h0L474,198.1l-.7-1-2.5,1.8L409.2,160v-.8h0a17.67,17.67,0,0,0-17.7-17.7h0a17.44,17.44,0,0,0-9.3,2.7h0L321.3,97.5c0-.2.1-.4.1-.6h0a13.19,13.19,0,0,0-13.2-13.2h0a13.3,13.3,0,0,0-13.1,13.2m-8.9,95.4a26.07,26.07,0,0,0,.5-4.8h0a24,24,0,0,0-9.5-19h0L308.3,110a12.41,12.41,0,0,0,6.6-1.9h0l59.7,45.8a17,17,0,0,0-.8,5.1h0A17.66,17.66,0,0,0,384,175h0l.3,91.9a32.55,32.55,0,0,0-4.4,1.5h0l-93.7-76.1Zm-5.8,11.3,89.2,72.6a28.94,28.94,0,0,0-7.1,19h0c0,.7.1,1.4.1,2h0l-76.9,22.6a21.77,21.77,0,0,0-20.6-15.1h0a21.78,21.78,0,0,0-15,6h0l-36-26.7a34.91,34.91,0,0,0,3.1-14.5h0a35.29,35.29,0,0,0-5.6-19h0l40.2-42.3A23.54,23.54,0,0,0,263,211h0a22.94,22.94,0,0,0,17.4-7.4"/><g class="cls-7"><rect class="cls-6" x="211.6" y="203.6" width="3.1" height="116.2"/></g><g class="cls-7"><rect class="cls-6" x="214.7" y="203.6" width="6.2" height="116.2"/></g><g class="cls-7"><rect class="cls-6" x="220.9" y="203.6" width="6.2" height="116.2"/></g><g class="cls-7"><rect class="cls-6" x="227.2" y="203.6" width="6.2" height="116.2"/></g><g class="cls-7"><rect class="cls-6" x="233.4" y="203.6" width="6.2" height="116.2"/></g><g class="cls-7"><rect class="cls-6" x="239.7" y="203.6" width="6.2" height="116.2"/></g><g class="cls-7"><rect class="cls-6" x="245.9" y="203.6" width="6.2" height="116.2"/></g><g class="cls-7"><rect class="cls-6" x="252.1" y="203.6" width="6.2" height="116.2"/></g><g class="cls-7"><rect class="cls-6" x="258.4" y="203.6" width="6.2" height="116.2"/></g><g class="cls-7"><rect class="cls-6" x="264.6" y="203.6" width="6.2" height="116.2"/></g><g class="cls-7"><rect class="cls-6" x="270.8" y="203.6" width="6.2" height="116.2"/></g><g class="cls-7"><rect class="cls-6" x="277.1" y="203.6" width="6.2" height="116.2"/></g><g class="cls-7"><rect class="cls-6" x="283.3" y="203.6" width="6.2" height="116.2"/></g><g class="cls-7"><rect class="cls-6" x="289.5" y="203.6" width="6.2" height="116.2"/></g><g class="cls-7"><rect class="cls-6" x="295.8" y="203.6" width="6.2" height="116.2"/></g><g class="cls-7"><rect class="cls-6" x="302" y="203.6" width="6.2" height="116.2"/></g><g class="cls-7"><rect class="cls-6" x="308.3" y="203.6" width="6.2" height="116.2"/></g><g class="cls-7"><rect class="cls-6" x="314.5" y="203.6" width="6.2" height="116.2"/></g><g class="cls-7"><rect class="cls-6" x="320.7" y="203.6" width="6.2" height="116.2"/></g><g class="cls-7"><rect class="cls-6" x="327" y="203.6" width="6.2" height="116.2"/></g><g class="cls-7"><rect class="cls-6" x="333.2" y="203.6" width="6.2" height="116.2"/></g><g class="cls-7"><rect class="cls-6" x="339.4" y="203.6" width="6.2" height="116.2"/></g><g class="cls-7"><rect class="cls-6" x="345.7" y="203.6" width="6.2" height="116.2"/></g><g class="cls-7"><rect class="cls-6" x="351.9" y="203.6" width="6.2" height="116.2"/></g><g class="cls-7"><rect class="cls-6" x="358.1" y="203.6" width="6.2" height="116.2"/></g><g class="cls-7"><rect class="cls-6" x="364.4" y="203.6" width="5.2" height="116.2"/></g><g class="cls-7"><rect class="cls-6" x="277.2" y="108.2" width="6.1" height="160.3"/></g><g class="cls-7"><rect class="cls-6" x="283.3" y="108.2" width="6.2" height="160.3"/></g><g class="cls-7"><rect class="cls-6" x="289.5" y="108.2" width="6.2" height="160.3"/></g><g class="cls-7"><rect class="cls-6" x="295.8" y="108.2" width="6.2" height="160.3"/></g><g class="cls-7"><rect class="cls-6" x="302" y="108.2" width="6.2" height="160.3"/></g><g class="cls-7"><rect class="cls-6" x="308.3" y="108.2" width="6.2" height="160.3"/></g><g class="cls-7"><rect class="cls-6" x="314.5" y="108.2" width="6.2" height="160.3"/></g><g class="cls-7"><rect class="cls-6" x="320.7" y="108.2" width="6.2" height="160.3"/></g><g class="cls-7"><rect class="cls-6" x="327" y="108.2" width="6.2" height="160.3"/></g><g class="cls-7"><rect class="cls-6" x="333.2" y="108.2" width="6.2" height="160.3"/></g><g class="cls-7"><rect class="cls-6" x="339.4" y="108.2" width="6.2" height="160.3"/></g><g class="cls-7"><rect class="cls-6" x="345.7" y="108.2" width="6.2" height="160.3"/></g><g class="cls-7"><rect class="cls-6" x="351.9" y="108.2" width="6.2" height="160.3"/></g><g class="cls-7"><rect class="cls-6" x="358.1" y="108.2" width="6.2" height="160.3"/></g><g class="cls-7"><rect class="cls-6" x="364.4" y="108.2" width="6.2" height="160.3"/></g><g class="cls-7"><rect class="cls-6" x="370.6" y="108.2" width="6.2" height="160.3"/></g><g class="cls-7"><rect class="cls-6" x="376.9" y="108.2" width="6.2" height="160.3"/></g><g class="cls-7"><rect class="cls-6" x="383.1" y="108.2" width="1.3" height="160.3"/></g><g class="cls-7"><rect class="cls-6" x="58" y="83.8" width="0.8" height="285.8"/></g><g class="cls-7"><rect class="cls-6" x="58.8" y="83.8" width="6.2" height="285.8"/></g><g class="cls-7"><rect class="cls-6" x="65" y="83.8" width="6.2" height="285.8"/></g><g class="cls-7"><rect class="cls-6" x="71.3" y="83.8" width="6.2" height="285.8"/></g><g class="cls-7"><rect class="cls-6" x="77.5" y="83.8" width="6.2" height="285.8"/></g><g class="cls-7"><rect class="cls-6" x="83.8" y="83.8" width="6.2" height="285.8"/></g><g class="cls-7"><rect class="cls-6" x="90" y="83.8" width="6.2" height="285.8"/></g><g class="cls-7"><rect class="cls-6" x="96.2" y="83.8" width="6.2" height="285.8"/></g><g class="cls-7"><rect class="cls-6" x="102.5" y="83.8" width="6.2" height="285.8"/></g><g class="cls-7"><rect class="cls-6" x="108.7" y="83.8" width="6.2" height="285.8"/></g><g class="cls-7"><rect class="cls-6" x="114.9" y="83.8" width="6.2" height="285.8"/></g><g class="cls-7"><rect class="cls-6" x="121.2" y="83.8" width="6.2" height="285.8"/></g><g class="cls-7"><rect class="cls-6" x="127.4" y="83.8" width="6.2" height="285.8"/></g><g class="cls-7"><rect class="cls-6" x="133.6" y="83.8" width="6.2" height="285.8"/></g><g class="cls-7"><rect class="cls-6" x="139.9" y="83.8" width="6.2" height="285.8"/></g><g class="cls-7"><rect class="cls-6" x="146.1" y="83.8" width="6.2" height="285.8"/></g><g class="cls-7"><rect class="cls-6" x="152.4" y="83.8" width="6.2" height="285.8"/></g><g class="cls-7"><rect class="cls-6" x="158.6" y="83.8" width="6.2" height="285.8"/></g><g class="cls-7"><rect class="cls-6" x="164.8" y="83.8" width="6.2" height="285.8"/></g><g class="cls-7"><rect class="cls-6" x="171.1" y="83.8" width="6.2" height="285.8"/></g><g class="cls-7"><rect class="cls-6" x="177.3" y="83.8" width="6.2" height="285.8"/></g><g class="cls-7"><rect class="cls-6" x="183.5" y="83.8" width="6.2" height="285.8"/></g><g class="cls-7"><rect class="cls-6" x="189.8" y="83.8" width="6.2" height="285.8"/></g><g class="cls-7"><rect class="cls-6" x="196" y="83.8" width="6.2" height="285.8"/></g><g class="cls-7"><rect class="cls-6" x="202.2" y="83.8" width="6.2" height="285.8"/></g><g class="cls-7"><rect class="cls-6" x="208.5" y="83.8" width="6.2" height="285.8"/></g><g class="cls-7"><rect class="cls-6" x="214.7" y="83.8" width="6.2" height="285.8"/></g><g class="cls-7"><rect class="cls-6" x="220.9" y="83.8" width="6.2" height="285.8"/></g><g class="cls-7"><rect class="cls-6" x="227.2" y="83.8" width="6.2" height="285.8"/></g><g class="cls-7"><rect class="cls-6" x="233.4" y="83.8" width="6.2" height="285.8"/></g><g class="cls-7"><rect class="cls-6" x="239.7" y="83.8" width="6.2" height="285.8"/></g><g class="cls-7"><rect class="cls-6" x="245.9" y="83.8" width="6.2" height="285.8"/></g><g class="cls-7"><rect class="cls-6" x="252.1" y="83.8" width="6.2" height="285.8"/></g><g class="cls-7"><rect class="cls-6" x="258.4" y="83.8" width="6.2" height="285.8"/></g><g class="cls-7"><rect class="cls-6" x="264.6" y="83.8" width="6.2" height="285.8"/></g><g class="cls-7"><rect class="cls-6" x="270.8" y="83.8" width="6.2" height="285.8"/></g><g class="cls-7"><rect class="cls-6" x="277.1" y="83.8" width="6.2" height="285.8"/></g><g class="cls-7"><rect class="cls-6" x="283.3" y="83.8" width="6.2" height="285.8"/></g><g class="cls-7"><rect class="cls-6" x="289.5" y="83.8" width="6.2" height="285.8"/></g><g class="cls-7"><rect class="cls-6" x="295.8" y="83.8" width="6.2" height="285.8"/></g><g class="cls-7"><rect class="cls-6" x="302" y="83.8" width="6.2" height="285.8"/></g><g class="cls-7"><rect class="cls-6" x="308.3" y="83.8" width="6.2" height="285.8"/></g><g class="cls-7"><rect class="cls-6" x="314.5" y="83.8" width="6.2" height="285.8"/></g><g class="cls-7"><rect class="cls-6" x="320.7" y="83.8" width="6.2" height="285.8"/></g><g class="cls-7"><rect class="cls-6" x="327" y="83.8" width="6.2" height="285.8"/></g><g class="cls-7"><rect class="cls-6" x="333.2" y="83.8" width="6.2" height="285.8"/></g><g class="cls-7"><rect class="cls-6" x="339.4" y="83.8" width="6.2" height="285.8"/></g><g class="cls-7"><rect class="cls-6" x="345.7" y="83.8" width="6.2" height="285.8"/></g><g class="cls-7"><rect class="cls-6" x="351.9" y="83.8" width="6.2" height="285.8"/></g><g class="cls-7"><rect class="cls-6" x="358.1" y="83.8" width="6.2" height="285.8"/></g><g class="cls-7"><rect class="cls-6" x="364.4" y="83.8" width="6.2" height="285.8"/></g><g class="cls-7"><rect class="cls-6" x="370.6" y="83.8" width="6.2" height="285.8"/></g><g class="cls-7"><rect class="cls-6" x="376.9" y="83.8" width="6.2" height="285.8"/></g><g class="cls-7"><rect class="cls-6" x="383.1" y="83.8" width="6.2" height="285.8"/></g><g class="cls-7"><rect class="cls-6" x="389.3" y="83.8" width="6.2" height="285.8"/></g><g class="cls-7"><rect class="cls-6" x="395.6" y="83.8" width="6.2" height="285.8"/></g><g class="cls-7"><rect class="cls-6" x="401.8" y="83.8" width="6.2" height="285.8"/></g><g class="cls-7"><rect class="cls-6" x="408" y="83.8" width="6.2" height="285.8"/></g><g class="cls-7"><rect class="cls-6" x="414.3" y="83.8" width="6.2" height="285.8"/></g><g class="cls-7"><rect class="cls-6" x="420.5" y="83.8" width="6.2" height="285.8"/></g><g class="cls-7"><rect class="cls-6" x="426.7" y="83.8" width="6.2" height="285.8"/></g><g class="cls-7"><rect class="cls-6" x="433" y="83.8" width="6.2" height="285.8"/></g><g class="cls-7"><rect class="cls-6" x="439.2" y="83.8" width="6.2" height="285.8"/></g><g class="cls-7"><rect class="cls-6" x="445.5" y="83.8" width="6.2" height="285.8"/></g><g class="cls-7"><rect class="cls-6" x="451.7" y="83.8" width="6.2" height="285.8"/></g><g class="cls-7"><rect class="cls-6" x="457.9" y="83.8" width="6.2" height="285.8"/></g><g class="cls-7"><rect class="cls-6" x="464.2" y="83.8" width="6.2" height="285.8"/></g><g class="cls-7"><rect class="cls-6" x="470.4" y="83.8" width="6.2" height="285.8"/></g><g class="cls-7"><rect class="cls-6" x="476.6" y="83.8" width="6.2" height="285.8"/></g><g class="cls-7"><rect class="cls-6" x="482.9" y="83.8" width="6.2" height="285.8"/></g><g class="cls-7"><rect class="cls-6" x="489.1" y="83.8" width="6.2" height="285.8"/></g><g class="cls-7"><rect class="cls-6" x="495.3" y="83.8" width="6.2" height="285.8"/></g><g class="cls-7"><rect class="cls-6" x="501.6" y="83.8" width="6.2" height="285.8"/></g><g class="cls-7"><rect class="cls-6" x="507.8" y="83.8" width="6.2" height="285.8"/></g><g class="cls-7"><rect class="cls-6" x="514" y="83.8" width="6.2" height="285.8"/></g><g class="cls-7"><rect class="cls-6" x="520.3" y="83.8" width="6.2" height="285.8"/></g><g class="cls-7"><rect class="cls-6" x="526.5" y="83.8" width="6.2" height="285.8"/></g><g class="cls-7"><rect class="cls-6" x="532.8" y="83.8" width="6.2" height="285.8"/></g><g class="cls-7"><rect class="cls-6" x="539" y="83.8" width="6.2" height="285.8"/></g><g class="cls-7"><rect class="cls-6" x="545.2" y="83.8" width="6.2" height="285.8"/></g><g class="cls-7"><rect class="cls-6" x="551.5" y="83.8" width="6.2" height="285.8"/></g></g><rect class="cls-8" x="33.5" y="37.9" width="987.3" height="372.7"/></svg>